<?xml version = "1.0" standalone = "no"?>
<svg xmlns="http://www.w3.org/2000/svg" xmlns:xlink="http://www.w3.org/1999/xlink" font-family="Arial" viewBox="2309 5092 50 50" width="50" height="50"><g clip-path="url(#clip-nquXdZnfXIq5T-npIdRWf5hRfTk)"><path transform="matrix(1 0 0 1 2310 5093)" d="M 20.245572839034462 0.2954798257166935 C 20.866235489706014 0.19717651915973633 21.490519559136985 0.12328763035110413 22.11698170253172 0.07398399040492976 C 22.743443845926453 0.024680350458755385 23.371600711315914 0 24 0 C 24.628399288684086 0 25.256556154073547 0.024680350458755385 25.88301829746828 0.07398399040492976 C 26.509480440862852 0.12328763035108992 27.133764510294153 0.1971765191597612 27.75442716096554 0.2954798257166935 L 28.94427190999916 8.783095739277542 C 29.37034021493354 9.142537489163637 29.812123643404767 9.482926742249228 30.268322809668717 9.80326233616741 C 30.724521975932596 10.123597930085547 31.19468895979687 10.423565342602446 31.67744089301212 10.702282301196082 C 32.160192826227366 10.980999259789717 32.655055717706624 11.238192105578433 33.16057406290805 11.473104375789166 C 33.66609240810947 11.7080166459999 34.18176986269255 11.92041769148422 34.70608970174173 12.10968279236169 L 42.6515030749673 8.896310614803902 C 43.046967561057414 9.384668584187175 43.42309925053857 9.888370003088003 43.77902852692837 10.406250313804007 C 44.134957803318166 10.924130624520007 44.47041004648449 11.45579025227951 44.78460969082653 11.999999999999998 C 45.09880933516857 12.544209747720487 45.39151395739172 13.100549725938743 45.662046824396654 13.667733676600918 C 45.9325796914016 14.234917627263094 46.1807320713514 14.812507934972567 46.40593023593284 15.399169210912792 L 39.65036161174089 20.673412946915846 C 39.55211007762601 21.222119797679362 39.478216051514266 21.774910096249375 39.42889687257673 22.330157960378244 C 39.379577693639185 22.885405824507114 39.354881786024194 23.442566082812732 39.354881786024194 24.000000000000004 C 39.354881786024194 24.557433917187275 39.379577693639185 25.114594175492893 39.42889687257673 25.669842039621763 C 39.478216051514266 26.225089903750632 39.55211007762601 26.77788020232063 39.65036161174089 27.326587053084147 L 46.40593023593284 32.600830789087205 C 46.1807320713514 33.18749206502743 45.9325796914016 33.7650823727369 45.662046824396654 34.332266323399075 C 45.39151395739172 34.89945027406125 45.098809335168575 35.4557902522795 44.78460969082653 35.999999999999986 C 44.470410046484574 36.54420974772034 44.13495780331809 37.07586937548011 43.779028526928386 37.59374968619598 C 43.423099250538584 38.11162999691198 43.046967561057414 38.61533141581282 42.6515030749673 39.1036893851961 L 34.70608970174173 35.890317207638304 C 34.18176986269253 36.07958230851578 33.66609240810945 36.2919833540001 33.160574062908026 36.52689562421084 C 32.6550557177066 36.76180789442157 32.160192826227345 37.01900074021029 31.677440893012097 37.29771769880392 C 31.19468895979685 37.57643465739756 30.724521975932575 37.87640206991446 30.268322809668696 38.1967376638326 C 29.812123643404814 38.51707325775074 29.370340214933478 38.85746251083641 28.944271909999163 39.21690426072246 L 27.75442716096554 47.7045201742833 C 27.13376451029399 47.80282348084026 26.50948044086302 47.8767123696489 25.883018297468283 47.926016009595074 C 25.256556154073554 47.97531964954125 24.628399288684083 48 24 48 C 23.371600711315914 48 22.74344384592646 47.97531964954125 22.116981702531728 47.926016009595074 C 21.490519559137155 47.876712369648914 20.866235489705847 47.80282348084024 20.245572839034462 47.7045201742833 L 19.055728090000844 39.21690426072246 C 18.629659785066522 38.85746251083641 18.187876356595194 38.51707325775074 17.73167719033131 38.19673766383261 C 17.275478024067358 37.87640206991442 16.805311040203218 37.576434657397606 16.322559106987896 37.29771769880392 C 15.839807173772648 37.01900074021029 15.344944282293392 36.76180789442157 14.839425937091969 36.52689562421084 C 14.333907591890545 36.2919833540001 13.818230137307474 36.07958230851578 13.293910298258272 35.89031720763831 L 5.3484969250327055 39.103689385196105 C 4.953032438942596 38.61533141581284 4.576900749461423 38.111629996911994 4.220971473071629 37.59374968619599 C 3.8650421966818342 37.07586937547999 3.5295899535155257 36.5442097477205 3.2153903091734826 36.000000000000014 C 2.9011906648314394 35.45579025227952 2.6084860426082948 34.89945027406128 2.3379531756033565 34.3322663233991 C 2.067420308598418 33.76508237273693 1.8192679286486069 33.18749206502744 1.5940697640671644 32.60083078908722 L 8.34963838825911 27.326587053084157 C 8.447889922373992 26.777880202320638 8.521783948485734 26.225089903750643 8.571103127423275 25.669842039621773 C 8.620422306360815 25.114594175492904 8.645118213975802 24.557433917187286 8.645118213975802 24.000000000000014 C 8.645118213975802 23.442566082812743 8.620422306360815 22.885405824507124 8.571103127423275 22.33015796037825 C 8.521783948485734 21.774910096249382 8.447889922373992 21.222119797679383 8.349638388259107 20.67341294691586 L 1.5940697640671502 15.399169210912808 C 1.8192679286485927 14.81250793497258 2.0674203085983933 14.234917627263112 2.3379531756033316 13.667733676600934 C 2.60848604260827 13.100549725938757 2.9011906648314145 12.544209747720508 3.2153903091734577 12.000000000000018 C 3.5295899535154973 11.45579025227953 3.8650421966818165 10.924130624520023 4.220971473071611 10.406250313804023 C 4.576900749461405 9.88837000308802 4.953032438942575 9.384668584187182 5.348496925032684 8.896310614803914 L 13.293910298258258 12.109682792361701 C 13.818230137307467 11.920417691484225 14.333907591890519 11.708016645999914 14.839425937091946 11.473104375789177 C 15.344944282293369 11.238192105578444 15.839807173772627 10.980999259789728 16.322559106987875 10.702282301196092 C 16.805311040203193 10.423565342602418 17.27547802406736 10.123597930085582 17.731677190331304 9.8032623361674 C 18.187876356595186 9.482926742249264 18.62965978506652 9.142537489163583 19.055728090000827 8.783095739277547 Z" fill-rule="evenodd" fill="#ffffff" stroke="#000000" stroke-width="2" stroke-linecap="butt" stroke-linejoin="round"/><g><path d="M 2330 5117 A 4 4 0 0 1 2338 5117 A 4 4 0 0 1 2330 5117 Z" fill="none" stroke="#000000" stroke-width="4" stroke-linecap="butt" stroke-linejoin="round"/></g></g><clipPath id="clip-nquXdZnfXIq5T-npIdRWf5hRfTk"><path d="M 2330 5117 A 4 4 0 0 1 2338 5117 A 4 4 0 0 1 2330 5117 Z M 2209 5242 L 2459 5242 L 2459 4992 L 2209 4992 Z" clip-rule="evenodd"/></clipPath><clipPath id="clip-nquXdZnfXIq5T-outside"><path d="M 2330.2455728390346 5093.295479825717 C 2330.866235489706 5093.19717651916 2331.490519559137 5093.123287630351 2332.1169817025316 5093.0739839904045 C 2332.7434438459263 5093.024680350459 2333.3716007113158 5093 2334 5093 C 2334.6283992886842 5093 2335.2565561540737 5093.024680350459 2335.8830182974684 5093.0739839904045 C 2336.5094804408627 5093.123287630351 2337.133764510294 5093.19717651916 2337.7544271609654 5093.295479825717 L 2338.9442719099993 5101.783095739278 C 2339.3703402149335 5102.142537489163 2339.812123643405 5102.482926742249 2340.268322809669 5102.803262336168 C 2340.7245219759325 5103.123597930085 2341.194688959797 5103.423565342602 2341.6774408930123 5103.702282301196 C 2342.1601928262276 5103.980999259789 2342.6550557177065 5104.2381921055785 2343.160574062908 5104.473104375789 C 2343.6660924081093 5104.708016646 2344.1817698626924 5104.9204176914845 2344.706089701742 5105.109682792362 L 2352.6515030749674 5101.896310614804 C 2353.0469675610575 5102.384668584187 2353.4230992505386 5102.888370003088 2353.7790285269284 5103.406250313804 C 2354.1349578033182 5103.92413062452 2354.4704100464846 5104.455790252279 2354.7846096908265 5105 C 2355.0988093351684 5105.544209747721 2355.391513957392 5106.100549725938 2355.662046824397 5106.667733676601 C 2355.9325796914018 5107.234917627263 2356.1807320713515 5107.812507934973 2356.405930235933 5108.399169210913 L 2349.6503616117407 5113.673412946916 C 2349.552110077626 5114.22211979768 2349.478216051514 5114.774910096249 2349.428896872577 5115.3301579603785 C 2349.379577693639 5115.885405824507 2349.354881786024 5116.442566082813 2349.354881786024 5117 C 2349.354881786024 5117.557433917187 2349.379577693639 5118.114594175493 2349.428896872577 5118.6698420396215 C 2349.478216051514 5119.225089903751 2349.552110077626 5119.77788020232 2349.6503616117407 5120.326587053084 L 2356.405930235933 5125.600830789087 C 2356.1807320713515 5126.187492065027 2355.9325796914018 5126.765082372737 2355.662046824397 5127.332266323399 C 2355.391513957392 5127.899450274062 2355.0988093351684 5128.455790252279 2354.7846096908265 5129 C 2354.4704100464846 5129.544209747721 2354.1349578033182 5130.07586937548 2353.7790285269284 5130.593749686196 C 2353.4230992505386 5131.111629996912 2353.0469675610575 5131.615331415813 2352.6515030749674 5132.103689385196 L 2344.706089701742 5128.890317207638 C 2344.1817698626924 5129.0795823085155 2343.6660924081093 5129.291983354 2343.160574062908 5129.526895624211 C 2342.6550557177065 5129.7618078944215 2342.1601928262276 5130.019000740211 2341.6774408930123 5130.297717698804 C 2341.1946889597966 5130.576434657398 2340.7245219759325 5130.876402069915 2340.268322809669 5131.196737663832 C 2339.812123643405 5131.517073257751 2339.3703402149335 5131.857462510837 2338.9442719099993 5132.216904260722 L 2337.7544271609654 5140.704520174283 C 2337.133764510294 5140.80282348084 2336.509480440863 5140.876712369649 2335.8830182974684 5140.9260160095955 C 2335.2565561540737 5140.975319649541 2334.6283992886842 5141 2334 5141 C 2333.3716007113158 5141 2332.7434438459263 5140.975319649541 2332.1169817025316 5140.9260160095955 C 2331.4905195591373 5140.876712369649 2330.866235489706 5140.80282348084 2330.2455728390346 5140.704520174283 L 2329.0557280900007 5132.216904260722 C 2328.6296597850665 5131.857462510837 2328.187876356595 5131.517073257751 2327.7316771903315 5131.196737663832 C 2327.2754780240675 5130.876402069915 2326.8053110402034 5130.576434657398 2326.3225591069877 5130.297717698804 C 2325.8398071737724 5130.019000740211 2325.3449442822935 5129.7618078944215 2324.839425937092 5129.526895624211 C 2324.3339075918907 5129.291983354 2323.8182301373076 5129.0795823085155 2323.293910298258 5128.890317207638 L 2315.3484969250326 5132.103689385196 C 2314.9530324389425 5131.615331415813 2314.5769007494614 5131.111629996912 2314.2209714730716 5130.593749686196 C 2313.8650421966818 5130.07586937548 2313.5295899535154 5129.544209747721 2313.2153903091735 5129 C 2312.9011906648316 5128.455790252279 2312.608486042608 5127.899450274062 2312.337953175603 5127.332266323399 C 2312.0674203085982 5126.765082372737 2311.8192679286485 5126.187492065027 2311.594069764067 5125.600830789087 L 2318.3496383882593 5120.326587053084 C 2318.447889922374 5119.77788020232 2318.521783948486 5119.225089903751 2318.571103127423 5118.6698420396215 C 2318.620422306361 5118.114594175493 2318.645118213976 5117.557433917187 2318.645118213976 5117 C 2318.645118213976 5116.442566082813 2318.620422306361 5115.885405824507 2318.571103127423 5115.3301579603785 C 2318.521783948486 5114.774910096249 2318.447889922374 5114.22211979768 2318.349638388259 5113.673412946916 L 2311.594069764067 5108.399169210913 C 2311.8192679286485 5107.812507934973 2312.0674203085982 5107.234917627263 2312.337953175603 5106.667733676601 C 2312.608486042608 5106.100549725938 2312.9011906648316 5105.544209747721 2313.2153903091735 5105 C 2313.5295899535154 5104.455790252279 2313.8650421966818 5103.92413062452 2314.2209714730716 5103.406250313804 C 2314.5769007494614 5102.888370003088 2314.9530324389425 5102.384668584187 2315.3484969250326 5101.896310614804 L 2323.293910298258 5105.109682792362 C 2323.8182301373076 5104.9204176914845 2324.3339075918907 5104.708016646 2324.839425937092 5104.473104375789 C 2325.3449442822935 5104.2381921055785 2325.8398071737724 5103.980999259789 2326.3225591069877 5103.702282301196 C 2326.8053110402034 5103.423565342602 2327.2754780240675 5103.123597930085 2327.731677190331 5102.803262336168 C 2328.187876356595 5102.482926742249 2328.6296597850665 5102.142537489163 2329.0557280900007 5101.783095739278 Z"/></clipPath></svg>