<?xml version = "1.0" standalone = "no"?>
<svg xmlns="http://www.w3.org/2000/svg" xmlns:xlink="http://www.w3.org/1999/xlink" font-family="Arial" viewBox="2549 5092 259 258" width="259" height="258"><g clip-path="url(#clip-nWu3ExRQ9WWz4-naa4R3DfFBpR8)"><path transform="matrix(1 0 0 1 2550.6334109096397 5093)" d="M 123.81195739881261 0.06853280302519238 C 124.50971920307367 0.045690446678051444 125.20765621089805 0.02855705481712789 125.90569835180965 0.017134347576089226 C 126.60374049271891 0.005711640335078982 127.30186440520055 0 127.99999999999994 0 C 128.69813559479934 0 129.39625950728097 0.005711640335078982 130.09430164819025 0.017134347576089226 C 130.79234378910184 0.02855705481712789 131.4902807969262 0.045690446678051444 132.1880426011873 0.06853280302519238 L 136.63191837880626 8.310861039517775 C 137.15037212488133 8.384875664351995 137.66961772588257 8.45323333453156 138.18956253177868 8.515921852860572 C 138.7095073376748 8.578610371189598 139.23012042078 8.635626008789984 139.75130888706087 8.686958592247564 C 140.27249735334175 8.738291175705129 140.7942302011363 8.78393765162268 141.3164143366088 8.823889875208167 C 141.83859847208134 8.863842098793654 142.36120283434505 8.89809769358368 142.88413417405818 8.926650547283955 L 148.8506205945073 1.7096534931354768 C 149.53943142400723 1.8233766213439395 150.22730032687 1.9427331984075806 150.9141582434089 2.0677112413340666 C 151.60101615995012 2.1926892842609647 152.28684010295729 2.3232846103856986 152.97156121806435 2.4594841083864907 C 153.65628233317142 2.595683606387283 154.33987770467417 2.7374827180471613 155.02227870194747 2.884867207222797 C 155.7046796992185 3.0322516963979496 156.38586348421046 3.1852166305429535 157.06576166839972 3.343746652501295 L 159.81625114920888 12.294658019560487 C 160.3103034149364 12.468395782404713 160.806235937425 12.636739770624274 161.30396022644246 12.79965994626454 C 161.80168451545995 12.962580121904807 162.30117096505563 13.12006679404496 162.80233045086317 13.272091862023032 C 163.30348993667076 13.42411693000112 163.80629264840462 13.570671350965895 164.31064886997166 13.711728974918984 C 164.81500509153864 13.852786598872058 165.320884822503 13.988339035334633 165.8281977977323 14.118362097414334 L 173.08800613391782 8.204041375062303 C 173.74139537477083 8.44995967178592 174.39276175649167 8.701219411453636 175.042039884122 8.95779536844644 C 175.69131801175448 9.214371325440098 176.3384861557765 9.476254912880336 176.9834793427314 9.743419838555297 C 177.6284725296842 10.010584764229378 178.27126917345478 10.283022086876642 178.91180473945735 10.560704454721105 C 179.552340305462 10.838386822566491 180.19059335676772 11.121304942358137 180.82649981496246 11.409430410089499 L 181.7779032307066 20.724946403608158 C 182.22856786458243 20.991730659669557 182.6821288998411 21.253591600870166 183.13850540668005 21.510482502838528 C 183.59488191351898 21.767373404806875 184.05404674546224 22.01927898699597 184.51591797281034 22.266154301388795 C 184.97778920015847 22.51302961578162 185.4423393495952 22.75485997758473 185.90948553050805 22.991602236522894 C 186.37663171142088 23.22834449546106 186.84634613672551 23.459984569481634 187.3185449943373 23.686481126582763 L 195.59268488324702 19.302120764597916 C 196.18554315335203 19.67078372760615 196.77537536917185 20.044290858990607 197.36212231356814 20.422604659911954 C 197.9488692579644 20.8009184608333 198.5325112941665 21.18402627019225 199.11298982650897 21.571889625274224 C 199.69346835885145 21.959752980356214 200.27076396034977 22.35235890046519 200.84481867249886 22.74966796930879 C 201.41887338464792 23.14697703815237 201.98966799545047 23.54897595891306 202.55714519907858 23.95562437227325 L 201.67290065004389 33.27775493682201 C 202.06285886292486 33.62733331675547 202.4566183147265 33.9726480418182 202.85410874616912 34.313637496819084 C 203.25159917761175 34.65462695181999 203.65279694491107 34.991270853802604 204.0576304615544 35.32350913472834 C 204.46246397819766 35.65574741565406 204.87090916361444 35.983560313109436 205.2828931381205 36.30688933478926 C 205.69487711262533 36.63021835646812 206.11037537032465 36.94904426990732 206.52931377303315 37.26331018636127 L 215.49981465892742 34.57739869467703 C 216.00935874744303 35.05463881305006 216.51498987608966 35.53603966655733 217.0166572812302 36.02155292419863 C 217.51832468637076 36.50706618183993 218.01601157860762 36.996675594851524 218.509667991878 37.49033200812188 C 219.00332440515 37.98398842139389 219.49293381815832 38.48167531362745 219.97844707580123 38.98334271876966 C 220.46396033344254 39.4850101239102 220.94536118694984 39.99064125255683 221.42260130532287 40.50018534107245 L 218.73668981363863 49.47068622696676 C 219.0509557300926 49.889624629675254 219.3697816435318 50.30512288737462 219.69311066521067 50.717106861879444 C 220.01643968688953 51.12909083638428 220.34425258434686 51.53753602180349 220.6764908652716 51.94236953844556 C 221.00872914619737 52.34720305508887 221.34537304817997 52.74840082238818 221.68636250318087 53.145891253830825 C 222.02735195818173 53.543381685273445 222.37266668324446 53.93714113707506 222.7222450631779 54.327099349956015 L 232.04437562772665 53.442854800921324 C 232.45102404108684 54.01033200454941 232.8530229618475 54.58112661535196 233.25033203069108 55.155181327501026 C 233.647641099536 55.72923603965201 234.0402470196424 56.30653164114649 234.4281103747257 56.88701017349089 C 234.81597372980767 57.46748870583336 235.1990815391666 58.0511307420355 235.57739534008795 58.637877686431764 C 235.9557091410093 59.22462463082803 236.32921627239375 59.81445684664786 236.697879235402 60.40731511675288 L 232.31351887341714 68.68145500566264 C 232.5400154305183 69.15365386327447 232.7716555045389 69.62336828857916 233.0083977634771 70.09051446949199 C 233.24514002241597 70.55766065040626 233.48697038421756 71.02221079984005 233.73384569861113 71.48408202718957 C 233.98072101300468 71.94595325453903 234.23262659519227 72.40511808647962 234.4895174971614 72.86149459331989 C 234.74640839912973 73.31787110015881 235.0082693403304 73.77143213541757 235.27505359639176 74.2220967692933 L 244.5905695899104 75.17350018503748 C 244.87869505764172 75.8094066432322 245.1616131774334 76.44765969453792 245.43929554527878 77.08819526054259 C 245.71697791312323 77.72873082654513 245.9894152357705 78.37152747031575 246.2565801614446 79.01652065726852 C 246.52374508711955 79.66151384422342 246.78562867455977 80.30868198824544 247.04220463155343 80.95796011587792 C 247.29878058854624 81.60723824350825 247.55004032821398 82.2586046252291 247.79595862493758 82.9119938660821 L 241.88163790258557 90.17180220226766 C 242.01166096466525 90.67911517749698 242.14721340112783 91.18499490846125 242.28827102508092 91.68935113002826 C 242.4293286490344 92.19370735159673 242.57588306999838 92.69651006332785 242.7279081379769 93.19766954913686 C 242.8799332059554 93.69882903494587 243.03741987809465 94.19831548453863 243.2003400537354 94.69603977355757 C 243.36326022937618 95.19376406257658 243.53160421759466 95.68969658506197 243.7053419804394 96.18374885079103 L 252.6562533474986 98.93423833160023 C 252.8147833694569 99.61413651578945 252.96774830360192 100.29532030078144 253.11513279277708 100.97772129805246 C 253.26251728195223 101.66012229532349 253.40431639361304 102.34371766683078 253.54051589161338 103.02843878193559 C 253.67671538961372 103.7131598970404 253.8073107157393 104.39898384005207 253.93228875866578 105.085841756591 C 254.05726680159268 105.77269967313218 254.17662337865556 106.46056857599041 254.2903465068644 107.14937940549264 L 247.07334945271595 113.11586582594175 C 247.1019023064162 113.63879716565489 247.13615790120627 114.16140152791866 247.17611012479176 114.68358566339118 C 247.21606234837725 115.20576979886374 247.26170882429474 115.72750264665808 247.31304140775234 116.24869111293897 C 247.3643739912099 116.76987957921982 247.42138962881032 117.29049266232522 247.48407814713934 117.81043746822131 C 247.54676666546837 118.33038227411741 247.61512433564792 118.84962787511863 247.68913896048213 119.36808162119367 L 255.9314671969747 123.81195739881265 C 255.95430955332182 124.50971920307371 255.97144294518276 125.20765621089811 255.9828656524238 125.90569835180969 C 255.9942883596648 126.60374049271897 255.9999999999999 127.3018644052006 255.9999999999999 128 C 255.9999999999999 128.69813559479942 255.9942883596648 129.396259507281 255.9828656524238 130.09430164819028 C 255.97144294518276 130.79234378910186 255.95430955332182 131.49028079692627 255.9314671969747 132.18804260118733 L 247.68913896048213 136.63191837880632 C 247.61512433564786 137.1503721248814 247.54676666546834 137.6696177258826 247.48407814713931 138.1895625317787 C 247.4213896288103 138.7095073376748 247.36437399120987 139.2301204207801 247.3130414077523 139.75130888706096 C 247.26170882429474 140.27249735334183 247.2160623483772 140.7942302011363 247.1761101247917 141.31641433660883 C 247.13615790120622 141.83859847208134 247.1019023064162 142.36120283434508 247.07334945271595 142.88413417405823 L 254.2903465068644 148.85062059450735 C 254.17662337865556 149.5394314240096 254.05726680159273 150.22730032686772 253.93228875866583 150.91415824340893 C 253.80731071573933 151.60101615994785 253.67671538961375 152.28684010295956 253.5405158916134 152.97156121806438 C 253.40431639361307 153.65628233316917 253.26251728195226 154.33987770467647 253.1151327927771 155.0222787019475 C 252.96774830360195 155.7046796992185 252.81478336945696 156.38586348421052 252.6562533474986 157.06576166839977 L 243.7053419804394 159.81625114920897 C 243.53160421759466 160.31030341493792 243.36326022937612 160.80623593742357 243.20034005373537 161.3039602264425 C 243.03741987809508 161.80168451546 242.87993320595496 162.3011709650556 242.7279081379769 162.80233045086317 C 242.57588306999878 163.30348993667073 242.429328649034 163.8062926484047 242.28827102508092 164.31064886997171 C 242.14721340112783 164.8150050915387 242.01166096466525 165.32088482250305 241.88163790258557 165.82819779773234 L 247.79595862493758 173.0880061339179 C 247.55004032821316 173.74139537477308 247.2987805885471 174.3927617564896 247.04220463155343 175.04203988412206 C 246.78562867456063 175.6913180117524 246.52374508711867 176.33848615577875 246.2565801614446 176.9834793427315 C 245.9894152357705 177.62847252968425 245.71697791312323 178.27126917345487 245.43929554527878 178.9118047394574 C 245.1616131774334 179.5523403054621 244.87869505764172 180.1905933567678 244.5905695899104 180.82649981496252 L 235.27505359639173 181.7779032307067 C 235.00826934033034 182.2285678645825 234.74640839912968 182.68212889984125 234.48951749716133 183.13850540668017 C 234.2326265951922 183.59488191352045 233.98072101300468 184.05404674546094 233.7338456986111 184.51591797281043 C 233.4869703842183 184.97778920015855 233.24514002241523 185.4423393495952 233.00839776347703 185.90948553050805 C 232.77165550453816 186.3766317114223 232.54001543051896 186.84634613672412 232.31351887341714 187.31854499433734 L 236.697879235402 195.59268488324707 C 236.32921627239378 196.18554315335209 235.95570914100932 196.7753753691719 235.57739534008797 197.3621223135682 C 235.19908153916663 197.94886925796445 234.8159737298077 198.53251129416657 234.4281103747257 199.11298982650905 C 234.04024701964374 199.69346835885153 233.64764109953472 200.27076396034988 233.25033203069114 200.84481867249895 C 232.85302296184622 201.41887338464994 232.4510240410882 201.98966799544866 232.04437562772668 202.55714519907863 L 222.72224506317792 201.67290065004394 C 222.37266668324548 202.06285886292375 222.02735195818073 202.45661831472773 221.68636250318087 202.85410874616917 C 221.345373048181 203.25159917761061 221.00872914619634 203.65279694491238 220.67649086527157 204.05763046155448 C 220.34425258434683 204.46246397819658 220.01643968688956 204.8709091636157 219.69311066521067 205.28289313812056 C 219.36978164353184 205.6948771126254 219.05095573009265 206.1103753703247 218.7366898136387 206.5293137730332 L 221.42260130532287 215.4998146589275 C 220.94536118694984 216.00935874744312 220.46396033344257 216.51498987608977 219.97844707580126 217.0166572812303 C 219.49293381815994 217.51832468637085 219.00332440514836 218.01601157860773 218.509667991878 218.50966799187808 C 218.016011578606 219.0033244051501 217.5183246863724 219.49293381815846 217.0166572812302 219.97844707580134 C 216.51498987608966 220.46396033344266 216.00935874744306 220.94536118694995 215.49981465892745 221.42260130532298 L 206.52931377303315 218.73668981363872 C 206.11037537032468 219.0509557300927 205.6948771126253 219.3697816435319 205.28289313812047 219.69311066521078 C 204.8709091636156 220.01643968688967 204.46246397819652 220.3442525843469 204.05763046155442 220.67649086527166 C 203.65279694491113 221.00872914619737 203.25159917761175 221.34537304818005 202.85410874616912 221.68636250318093 C 202.45661831472648 222.02735195818184 202.06285886292486 222.37266668324452 201.6729006500439 222.72224506317798 L 202.55714519907858 232.04437562772677 C 201.98966799545047 232.45102404108695 201.41887338464795 232.85302296184764 200.8448186724989 233.25033203069123 C 200.2707639603498 233.64764109953484 199.69346835885153 234.0402470196438 199.11298982650902 234.42811037472578 C 198.53251129416464 234.81597372980906 197.94886925796638 235.19908153916543 197.36212231356816 235.57739534008806 C 196.77537536916995 235.95570914101063 196.18554315335402 236.3292162723926 195.59268488324702 236.69787923540213 L 187.31854499433726 232.31351887341725 C 186.8463461367254 232.54001543051842 186.37663171142077 232.771655504539 185.9094855305079 233.00839776347715 C 185.44233934959504 233.24514002241534 184.97778920015844 233.4869703842184 184.51591797281029 233.73384569861122 C 184.05404674546216 233.98072101300409 183.59488191351898 234.2326265951931 183.13850540668005 234.48951749716144 C 182.68212889983977 234.7464083991306 182.2285678645837 235.00826934032966 181.7779032307066 235.27505359639184 L 180.82649981496246 244.5905695899105 C 180.19059335676775 244.87869505764183 179.552340305462 245.1616131774335 178.91180473945735 245.4392955452789 C 178.27126917345265 245.7169779131243 177.62847252968638 245.9894152357697 176.98347934273147 246.25658016144467 C 176.33848615577656 246.52374508711966 175.6913180117545 246.78562867455986 175.04203988412203 247.04220463155355 C 174.39276175648956 247.29878058854717 173.74139537477302 247.55004032821324 173.08800613391782 247.7959586249377 L 165.8281977977323 241.88163790258568 C 165.32088482250293 242.01166096466537 164.8150050915387 242.14721340112794 164.3106488699717 242.28827102508103 C 163.8062926484047 242.4293286490341 163.30348993667062 242.57588306999895 162.80233045086308 242.727908137977 C 162.30117096505407 242.87993320595552 161.80168451546132 243.03741987809477 161.30396022644237 243.20034005373552 C 160.8062359374234 243.3632602293763 160.3103034149379 243.5316042175948 159.8162511492089 243.70534198043953 L 157.06576166839974 252.6562533474987 C 156.38586348420824 252.81478336945756 155.70467969922083 252.96774830360152 155.02227870194753 253.11513279277716 C 154.3398777046765 253.26251728195234 153.6562823331692 253.40431639361316 152.9715612180644 253.5405158916135 C 152.28684010295734 253.6767153896143 151.60101615995018 253.807310715739 150.91415824340896 253.9322887586659 C 150.22730032686778 254.0572668015928 149.53943142400956 254.17662337865568 148.85062059450735 254.29034650686452 L 142.8841341740582 247.07334945271606 C 142.36120283434354 247.1019023064164 141.83859847208285 247.13615790120625 141.3164143366088 247.17611012479188 C 140.79423020113626 247.21606234837736 140.2724973533418 247.26170882429489 139.75130888706093 247.31304140775245 C 139.23012042078005 247.36437399121002 138.70950733767478 247.42138962881043 138.18956253177865 247.48407814713946 C 137.66961772588257 247.54676666546848 137.15037212488136 247.615124335648 136.6319183788063 247.68913896048224 L 132.1880426011873 255.9314671969748 C 131.49028079692624 255.95430955332193 130.79234378910184 255.97144294518287 130.09430164819025 255.98286565242392 C 129.39625950728097 255.99428835966492 128.69813559479934 256 127.99999999999994 256 C 127.30186440520055 256 126.6037404927189 255.99428835966492 125.90569835180963 255.98286565242392 C 125.20765621089805 255.97144294518287 124.50971920307366 255.95430955332193 123.81195739881261 255.9314671969748 L 119.36808162119362 247.68913896048224 C 118.84962787511857 247.61512433564798 118.33038227411734 247.54676666546845 117.81043746822124 247.48407814713943 C 117.2904926623236 247.42138962881023 116.76987957922137 247.36437399121013 116.24869111293896 247.31304140775242 C 115.7275026466581 247.26170882429486 115.20576979886366 247.2160623483773 114.68358566339111 247.17611012479182 C 114.16140152791858 247.13615790120633 113.63879716565486 247.10190230641632 113.11586582594173 247.07334945271606 L 107.14937940549257 254.29034650686452 C 106.46056857599264 254.17662337865607 105.77269967312986 254.05726680159242 105.08584175659095 253.93228875866595 C 104.39898384005201 253.80731071573945 103.71315989704038 253.67671538961386 103.02843878193556 253.54051589161352 C 102.34371766683077 253.4043163936132 101.66012229532348 253.26251728195237 100.97772129805244 253.11513279277722 C 100.29532030077915 252.96774830360158 99.61413651579169 252.8147833694576 98.93423833160017 252.6562533474987 L 96.18374885079098 243.70534198043953 C 95.68969658506347 243.5316042175953 95.1937640625749 243.36326022937575 94.69603977355743 243.2003400537355 C 94.19831548453993 243.0374198780952 93.69882903494432 242.8799332059551 93.19766954913678 242.727908137977 C 92.69651006332921 242.57588306999892 92.19370735159521 242.42932864903412 91.68935113002821 242.28827102508103 C 91.18499490845974 242.14721340112754 90.67911517749839 242.01166096466577 90.17180220226759 241.88163790258568 L 82.91199386608207 247.79595862493773 C 82.25860462522905 247.5500403282141 81.60723824350826 247.29878058854638 80.95796011587794 247.04220463155357 C 80.30868198824761 246.78562867456077 79.66151384422125 246.5237450871188 79.0165206572685 246.25658016144473 C 78.3715274703136 245.98941523576974 77.72873082654723 245.7169779131243 77.08819526054256 245.43929554527892 C 76.44765969454002 245.16161317743445 75.80940664323006 244.8786950576409 75.17350018503745 244.5905695899105 L 74.22209676929327 235.27505359639184 C 73.77143213541748 235.00826934033046 73.31787110015873 234.74640839912982 72.8614945933198 234.48951749716144 C 72.40511808648087 234.2326265951931 71.9459532545377 233.98072101300409 71.48408202718957 233.73384569861122 C 71.02221079984008 233.48697038421767 70.55766065040619 233.24514002241602 70.09051446949195 233.00839776347715 C 69.62336828857909 232.77165550453898 69.15365386327449 232.54001543051842 68.68145500566263 232.31351887341725 L 60.4073151167529 236.69787923540213 C 59.81445684664591 236.32921627239264 59.224624630830036 235.9557091410107 58.63787768643181 235.5773953400881 C 58.05113074203359 235.1990815391655 57.46748870583532 234.8159737298091 56.887010173490935 234.4281103747258 C 56.30653164114847 234.04024701964383 55.72923603965013 233.64764109953484 55.155181327501055 233.25033203069125 C 54.58112661535199 232.85302296184767 54.01033200454944 232.45102404108695 53.44285480092134 232.04437562772677 L 54.32709934995603 222.72224506317804 C 53.937141137076225 222.3726666832456 53.543381685272195 222.02735195818082 53.14589125383077 221.68636250318096 C 52.748400822389314 221.34537304818107 52.34720305508756 221.0087291461964 51.94236953844546 220.67649086527166 C 51.53753602180217 220.34425258434592 51.12909083638546 220.0164396868906 50.71710686187939 219.69311066521078 C 50.30512288737455 219.36978164353192 49.88962462967524 219.05095573009274 49.47068622696676 218.73668981363878 L 40.500185341072466 221.42260130532298 C 39.99064125255684 220.94536118694995 39.48501012391026 220.46396033344269 38.983342718769705 219.9784470758014 C 38.48167531362917 219.4929338181601 37.98398842139227 219.00332440514848 37.49033200812191 218.50966799187813 C 36.99667559484992 218.01601157860614 36.50706618184154 217.51832468637252 36.02155292419863 217.01665728123032 C 35.53603966655733 216.5149898760898 35.05463881305005 216.00935874744317 34.577398694677015 215.49981465892756 L 37.26331018636127 206.52931377303327 C 36.94904426990729 206.11037537032476 36.63021835646808 205.6948771126254 36.30688933478922 205.28289313812058 C 35.983560313110345 204.87090916361572 35.655747415653096 204.4624639781966 35.32350913472834 204.0576304615545 C 34.99127085380262 203.65279694491122 34.65462695181992 203.25159917761184 34.31363749681903 202.8541087461692 C 33.97264804181815 202.4566183147266 33.627333316755454 202.06285886292494 33.27775493682199 201.672900650044 L 23.955624372273235 202.55714519907866 C 23.54897595891171 201.9896679954487 23.146977038153665 201.41887338464988 22.74966796930876 200.84481867249895 C 22.352358900465177 200.27076396034988 21.959752980356157 199.6934683588515 21.57188962527418 199.11298982650902 C 21.18402627019219 198.53251129416657 20.800918460833287 197.9488692579645 20.42260465991194 197.36212231356822 C 20.044290858990607 196.77537536917197 19.670783727606135 196.1855431533521 19.302120764597902 195.5926848832471 L 23.68648112658275 187.31854499433734 C 23.459984569481577 186.84634613672551 23.228344495460973 186.37663171142083 22.99160223652281 185.909485530508 C 22.754859977583934 185.44233934959374 22.513029615782287 184.97778920015986 22.266154301388724 184.51591797281037 C 22.01927898699516 184.05404674546088 21.76737340480763 183.5948819135204 21.5104825028385 183.1385054066801 C 21.253591600869385 182.68212889983985 20.99173065967028 182.22856786458374 20.72494640360813 181.7779032307067 L 11.409430410089527 180.82649981496257 C 11.121304942359146 180.19059335677 10.838386822565596 179.55234030546004 10.560704454721133 178.91180473945747 C 10.283022086875746 178.2712691734528 10.010584764230302 177.6284725296865 9.74341983855534 176.98347934273158 C 9.47625491288126 176.3384861557788 9.214371325439288 175.69131801175246 8.957795368446483 175.04203988412215 C 8.701219411452826 174.39276175648968 8.449959671786772 173.74139537477313 8.204041375062332 173.08800613391796 L 14.118362097414362 165.8281977977324 C 13.988339035334661 165.32088482250307 13.852786598872058 164.81500509153878 13.711728974918984 164.3106488699718 C 13.57067135096591 163.8062926484048 13.424116930001077 163.3034899366707 13.272091862023004 162.80233045086317 C 13.120066794044916 162.30117096505563 12.962580121904793 161.80168451546 12.799659946264512 161.3039602264425 C 12.636739770623763 160.80623593742357 12.468395782405224 160.31030341493798 12.2946580195605 159.81625114920902 L 3.3437466525013093 157.06576166839983 C 3.185216630542982 156.3858634842106 3.032251696397978 155.7046796992186 2.8848672072228254 155.02227870194756 C 2.737482718047673 154.33987770467652 2.5956836063868565 153.6562823331693 2.459484108386519 152.97156121806447 C 2.3232846103861817 152.28684010295967 2.192689284260595 151.601016159948 2.067711241334109 150.91415824340908 C 1.9427331984076233 150.22730032687014 1.8233766213439537 149.53943142400738 1.709653493135491 148.8506205945074 L 8.92665054728397 142.8841341740583 C 8.898097693583694 142.36120283434514 8.863842098793654 141.83859847208137 8.823889875208167 141.31641433660886 C 8.78393765162268 140.79423020113632 8.738291175705143 140.2724973533419 8.686958592247578 139.75130888706101 C 8.635626008790013 139.23012042078014 8.578610371189598 138.70950733767484 8.515921852860572 138.18956253177873 C 8.453233334531546 137.66961772588263 8.384875664352023 137.15037212488141 8.310861039517789 136.63191837880638 L 0.06853280302519238 132.18804260118736 C 0.045690446678051444 131.4902807969263 0.02855705481712789 130.7923437891019 0.017134347576089226 130.0943016481903 C 0.005711640335078982 129.39625950728106 0 128.6981355947994 0 128 C 0 127.3018644052006 0.005711640335078982 126.603740492719 0.017134347576089226 125.90569835180972 C 0.02855705481712789 125.20765621089814 0.045690446678051444 124.50971920307374 0.06853280302519238 123.81195739881267 L 8.310861039517775 119.36808162119368 C 8.384875664352009 118.84962787511863 8.45323333453156 118.33038227411738 8.515921852860572 117.8104374682213 C 8.578610371189598 117.29049266232518 8.635626008790013 116.76987957921989 8.686958592247578 116.24869111293901 C 8.738291175705143 115.72750264665814 8.78393765162268 115.20576979886371 8.823889875208167 114.68358566339116 C 8.863842098793654 114.16140152791863 8.89809769358368 113.63879716565492 8.926650547283955 113.11586582594178 L 1.7096534931354768 107.14937940549262 C 1.8233766213439395 106.4605685759927 1.9427331984075948 105.77269967312989 2.067711241334081 105.085841756591 C 2.192689284260979 104.3989838400498 2.3232846103857128 103.71315989704263 2.459484108386505 103.02843878193555 C 2.5956836063868423 102.34371766683074 2.7374827180476586 101.66012229532349 2.884867207222811 100.97772129805246 C 3.0322516963979638 100.29532030078143 3.1852166305429677 99.61413651578944 3.343746652501295 98.93423833160021 L 12.294658019560487 96.18374885079103 C 12.468395782405224 95.68969658506205 12.636739770623777 95.1937640625764 12.799659946264526 94.69603977355746 C 12.962580121904807 94.19831548453993 13.120066794044888 93.69882903494447 13.272091862022975 93.19766954913689 C 13.424116930001503 92.69651006332788 13.570671350965483 92.19370735159674 13.71172897491897 91.68935113002826 C 13.852786598872456 91.1849949084598 13.988339035334235 90.67911517749843 14.118362097414334 90.17180220226763 L 8.204041375062317 82.91199386608207 C 8.449959671785933 82.25860462522907 8.701219411453664 81.60723824350822 8.957795368446469 80.9579601158779 C 9.214371325440126 80.30868198824541 9.47625491288035 79.66151384422339 9.743419838555312 79.01652065726849 C 10.010584764229392 78.37152747031573 10.283022086876656 77.7287308265451 10.560704454721119 77.08819526054256 C 10.838386822566505 76.44765969453789 11.12130494235818 75.80940664323217 11.409430410089513 75.17350018503744 L 20.724946403608158 74.22209676929327 C 20.991730659670324 73.77143213541618 21.25359160086944 73.31787110016005 21.510482502838556 72.86149459331978 C 21.767373404807685 72.40511808647948 22.01927898699516 71.9459532545391 22.266154301388738 71.48408202718959 C 22.513029615781562 71.02221079984147 22.754859977584672 70.55766065040476 22.99160223652285 70.09051446949191 C 23.22834449546103 69.62336828857906 23.45998456948159 69.15365386327446 23.686481126582763 68.68145500566263 L 19.302120764597873 60.40731511675294 C 19.670783727606107 59.81445684664793 20.04429085899055 59.2246246308281 20.422604659911897 58.637877686431835 C 20.800918460833245 58.05113074203557 21.184026270192177 57.467488705833446 21.571889625274167 56.88701017349098 C 21.959752980357436 56.30653164114659 22.35235890046384 55.72923603965208 22.749667969308746 55.1551813275011 C 23.14697703815365 54.581126615350115 23.54897595891167 54.01033200455137 23.955624372273206 53.44285480092138 L 33.27775493682195 54.32709934995607 C 33.62733331675439 53.93714113707625 33.97264804181917 53.54338168527225 34.31363749681904 53.145891253830825 C 34.65462695181894 52.74840082238936 34.99127085380353 52.34720305508766 35.32350913472828 51.94236953844555 C 35.65574741565301 51.537536021803476 35.98356031311036 51.129090836384265 36.30688933478922 50.71710686187943 C 36.63021835646809 50.305122887374594 36.94904426990723 49.88962462967528 37.26331018636121 49.470686226966805 L 34.577398694677 40.500185341072495 C 35.05463881305161 39.99064125255518 35.53603966655571 39.48501012391196 36.021552924198616 38.98334271876975 C 36.50706618183992 38.4816753136292 36.996675594851524 37.98398842139231 37.49033200812188 37.49033200812195 C 37.983988421393875 36.99667559484996 38.48167531362748 36.50706618184158 38.98334271876968 36.02155292419867 C 39.48501012391023 35.53603966655737 39.9906412525568 35.05463881305009 40.500185341072424 34.57739869467704 L 49.47068622696672 37.263310186361295 C 49.88962462967521 36.94904426990732 50.305122887374566 36.63021835646812 50.7171068618794 36.30688933478926 C 51.129090836384265 35.983560313110374 51.537536021803305 35.65574741565317 51.94236953844542 35.32350913472841 C 52.34720305508749 34.99127085380367 52.74840082238934 34.65462695181894 53.14589125383078 34.31363749681907 C 53.54338168527339 33.97264804181819 53.93714113707503 33.62733331675548 54.32709934995597 33.27775493682202 L 53.44285480092131 23.95562437227325 C 54.0103320045494 23.54897595891306 54.581126615351934 23.14697703815237 55.15518132750101 22.74966796930879 C 55.72923603965009 22.35235890046519 56.306531641148425 21.959752980356214 56.88701017349089 21.571889625274224 C 57.46748870583336 21.18402627019225 58.05113074203548 20.8009184608333 58.63787768643175 20.422604659911954 C 59.22462463082802 20.044290858990607 59.81445684664784 19.670783727606164 60.40731511675287 19.302120764597916 L 68.68145500566263 23.686481126582763 C 69.1536538632745 23.459984569481577 69.62336828857897 23.2283444954611 70.09051446949186 22.99160223652291 C 70.5576606504047 22.75485997758473 71.02221079984145 22.51302961578162 71.48408202718954 22.266154301388795 C 71.94595325453903 22.019278986995246 72.40511808647959 21.767373404807657 72.86149459331986 21.510482502838542 C 73.31787110015881 21.253591600870166 73.7714321354174 20.991730659669614 74.22209676929327 20.724946403608143 L 75.17350018503737 11.409430410089527 C 75.80940664323208 11.12130494235818 76.4476596945378 10.838386822566534 77.08819526054248 10.560704454721147 C 77.72873082654715 10.28302208687576 78.3715274703135 10.010584764230302 79.01652065726839 9.74341983855534 C 79.6615138442233 9.476254912880378 80.30868198824534 9.21437132544014 80.95796011587782 8.957795368446483 C 81.6072382435103 8.701219411452826 82.25860462522681 8.449959671786772 82.911993866082 8.204041375062332 L 90.17180220226754 14.118362097414362 C 90.67911517749837 13.988339035334278 91.18499490845969 13.852786598872484 91.68935113002816 13.711728974918984 C 92.19370735159515 13.57067135096591 92.69651006332924 13.424116930001077 93.19766954913678 13.272091862023004 C 93.69882903494431 13.12006679404493 94.19831548453999 12.962580121904779 94.69603977355749 12.799659946264498 C 95.19376406257643 12.636739770623748 95.68969658506202 12.468395782405196 96.18374885079092 12.2946580195605 L 98.93423833160014 3.3437466525013093 C 99.61413651578937 3.185216630542982 100.29532030078133 3.032251696397978 100.97772129805236 2.8848672072228254 C 101.66012229532565 2.7374827180471897 102.3437176668284 2.595683606387311 103.02843878193548 2.459484108386519 C 103.71315989704028 2.3232846103861817 104.398983840052 2.192689284260581 105.08584175659091 2.067711241334095 C 105.77269967313211 1.942733198407197 106.4605685759903 1.8233766213443374 107.14937940549254 1.709653493135491 L 113.11586582594167 8.92665054728397 C 113.63879716565634 8.898097693583608 114.16140152791702 8.863842098793782 114.68358566339109 8.823889875208167 C 115.20576979886361 8.78393765162268 115.72750264665814 8.738291175705143 116.248691112939 8.686958592247578 C 116.76987957921989 8.635626008789998 117.29049266232508 8.578610371189598 117.81043746822121 8.515921852860572 C 118.33038227411885 8.453233334531362 118.849627875117 8.384875664352222 119.36808162119357 8.310861039517789 Z" fill-rule="evenodd" fill="#ffffff" stroke="#000000" stroke-width="2" stroke-linecap="butt" stroke-linejoin="round"/><g><path d="M 2654.6334109096397 5221 A 24 24 0 0 1 2702.6334109096397 5221 A 24 24 0 0 1 2654.6334109096397 5221 Z" fill="none" stroke="#000000" stroke-width="4" stroke-linecap="butt" stroke-linejoin="round"/></g></g><clipPath id="clip-nWu3ExRQ9WWz4-naa4R3DfFBpR8"><path d="M 2654.6334109096397 5221 A 24 24 0 0 1 2702.6334109096397 5221 A 24 24 0 0 1 2654.6334109096397 5221 Z M 2449.6334109096397 5450 L 2907.6334109096397 5450 L 2907.6334109096397 4992 L 2449.6334109096397 4992 Z" clip-rule="evenodd"/></clipPath><clipPath id="clip-nWu3ExRQ9WWz4-outside"><path d="M 2674.4453683084525 5093.068532803025 C 2675.1431301127136 5093.045690446678 2675.841067120538 5093.028557054817 2676.5391092614495 5093.017134347576 C 2677.2371514023584 5093.005711640335 2677.9352753148405 5093 2678.6334109096397 5093 C 2679.331546504439 5093 2680.029670416921 5093.005711640335 2680.72771255783 5093.017134347576 C 2681.4257546987415 5093.028557054817 2682.1236917065658 5093.045690446678 2682.8214535108273 5093.068532803025 L 2687.265329288446 5101.3108610395175 C 2687.783783034521 5101.384875664352 2688.3030286355224 5101.453233334531 2688.8229734414185 5101.515921852861 C 2689.3429182473146 5101.57861037119 2689.86353133042 5101.63562600879 2690.3847197967007 5101.686958592248 C 2690.9059082629815 5101.738291175705 2691.427641110776 5101.783937651623 2691.9498252462486 5101.823889875208 C 2692.472009381721 5101.863842098794 2692.9946137439847 5101.898097693584 2693.5175450836978 5101.926650547284 L 2699.484031504147 5094.709653493135 C 2700.172842333647 5094.823376621344 2700.86071123651 5094.942733198408 2701.5475691530487 5095.067711241334 C 2702.23442706959 5095.192689284261 2702.920251012597 5095.323284610386 2703.604972127704 5095.459484108386 C 2704.289693242811 5095.595683606387 2704.973288614314 5095.737482718047 2705.655689611587 5095.884867207223 C 2706.3380906088582 5096.032251696398 2707.01927439385 5096.1852166305425 2707.6991725780395 5096.343746652501 L 2710.449662058849 5105.29465801956 C 2710.943714324576 5105.4683957824045 2711.4396468470645 5105.636739770624 2711.937371136082 5105.799659946265 C 2712.4350954250995 5105.9625801219045 2712.934581874695 5106.120066794045 2713.435741360503 5106.272091862023 C 2713.9369008463104 5106.424116930001 2714.439703558044 5106.570671350966 2714.9440597796115 5106.711728974919 C 2715.4484160011784 5106.852786598872 2715.954295732143 5106.988339035334 2716.461608707372 5107.118362097414 L 2723.7214170435577 5101.204041375062 C 2724.3748062844106 5101.449959671786 2725.0261726661315 5101.701219411454 2725.6754507937617 5101.957795368447 C 2726.324728921394 5102.21437132544 2726.971897065416 5102.47625491288 2727.6168902523714 5102.743419838555 C 2728.261883439324 5103.010584764229 2728.9046800830947 5103.283022086876 2729.545215649097 5103.560704454721 C 2730.185751215102 5103.8383868225665 2730.8240042664074 5104.121304942358 2731.459910724602 5104.409430410089 L 2732.4113141403463 5113.724946403609 C 2732.8619787742223 5113.99173065967 2733.315539809481 5114.25359160087 2733.7719163163197 5114.510482502838 C 2734.228292823159 5114.767373404807 2734.6874576551018 5115.019278986996 2735.14932888245 5115.266154301389 C 2735.611200109798 5115.513029615781 2736.075750259235 5115.754859977585 2736.5428964401476 5115.991602236523 C 2737.0100426210606 5116.228344495461 2737.479757046365 5116.459984569482 2737.9519559039773 5116.686481126583 L 2746.2260957928866 5112.302120764598 C 2746.818954062992 5112.670783727606 2747.4087862788115 5113.04429085899 2747.995533223208 5113.422604659912 C 2748.582280167604 5113.800918460834 2749.165922203806 5114.184026270193 2749.7464007361486 5114.571889625274 C 2750.326879268491 5114.959752980356 2750.9041748699897 5115.352358900465 2751.4782295821387 5115.749667969309 C 2752.052284294288 5116.146977038153 2752.62307890509 5116.548975958913 2753.1905561087183 5116.955624372274 L 2752.3063115596838 5126.277754936822 C 2752.6962697725644 5126.6273333167555 2753.0900292243664 5126.9726480418185 2753.4875196558087 5127.313637496819 C 2753.8850100872514 5127.65462695182 2754.286207854551 5127.991270853802 2754.691041371194 5128.323509134729 C 2755.0958748878375 5128.655747415654 2755.5043200732543 5128.98356031311 2755.91630404776 5129.306889334789 C 2756.328288022265 5129.6302183564685 2756.7437862799643 5129.949044269907 2757.162724682673 5130.263310186361 L 2766.133225568567 5127.577398694677 C 2766.6427696570827 5128.05463881305 2767.1484007857293 5128.536039666557 2767.65006819087 5129.021552924199 C 2768.1517355960104 5129.50706618184 2768.649422488247 5129.996675594852 2769.1430789015176 5130.490332008122 C 2769.63673531479 5130.983988421394 2770.126344727798 5131.481675313627 2770.611857985441 5131.98334271877 C 2771.0973712430823 5132.48501012391 2771.5787720965895 5132.990641252557 2772.0560122149627 5133.500185341072 L 2769.3701007232785 5142.470686226967 C 2769.684366639732 5142.889624629675 2770.0031925531716 5143.305122887375 2770.3265215748506 5143.717106861879 C 2770.649850596529 5144.129090836384 2770.9776634939867 5144.537536021803 2771.3099017749114 5144.942369538446 C 2771.642140055837 5145.347203055089 2771.97878395782 5145.748400822388 2772.3197734128207 5146.145891253831 C 2772.6607628678216 5146.543381685274 2773.006077592884 5146.937141137075 2773.3556559728177 5147.327099349956 L 2782.6777865373665 5146.442854800921 C 2783.0844349507265 5147.010332004549 2783.4864338714874 5147.581126615352 2783.8837429403306 5148.155181327501 C 2784.2810520091757 5148.729236039652 2784.673657929282 5149.306531641147 2785.0615212843654 5149.887010173491 C 2785.4493846394475 5150.467488705834 2785.8324924488065 5151.051130742036 2786.2108062497277 5151.637877686432 C 2786.589120050649 5152.224624630828 2786.9626271820334 5152.814456846648 2787.3312901450417 5153.407315116753 L 2782.946929783057 5161.681455005662 C 2783.173426340158 5162.1536538632745 2783.4050664141787 5162.6233682885795 2783.641808673117 5163.090514469492 C 2783.8785509320555 5163.557660650406 2784.1203812938575 5164.02221079984 2784.367256608251 5164.484082027189 C 2784.6141319226444 5164.945953254539 2784.866037504832 5165.40511808648 2785.1229284068013 5165.86149459332 C 2785.3798193087696 5166.317871100159 2785.6416802499702 5166.771432135418 2785.9084645060316 5167.222096769293 L 2795.22398049955 5168.1735001850375 C 2795.5121059672815 5168.809406643232 2795.795024087073 5169.447659694538 2796.0727064549187 5170.088195260542 C 2796.350388822763 5170.728730826545 2796.6228261454103 5171.371527470315 2796.8899910710843 5172.016520657268 C 2797.1571559967592 5172.661513844223 2797.4190395841997 5173.308681988246 2797.675615541193 5173.9579601158775 C 2797.932191498186 5174.607238243509 2798.1834512378537 5175.258604625229 2798.4293695345773 5175.911993866082 L 2792.5150488122254 5183.171802202268 C 2792.645071874305 5183.679115177497 2792.7806243107675 5184.184994908461 2792.9216819347207 5184.689351130029 C 2793.0627395586744 5185.1937073515965 2793.209293979638 5185.696510063328 2793.3613190476167 5186.197669549137 C 2793.513344115595 5186.698829034945 2793.6708307877343 5187.198315484538 2793.833750963375 5187.6960397735575 C 2793.996671139016 5188.1937640625765 2794.1650151272343 5188.689696585062 2794.3387528900794 5189.183748850791 L 2803.289664257138 5191.9342383316 C 2803.4481942790967 5192.614136515789 2803.6011592132418 5193.295320300782 2803.748543702417 5193.9777212980525 C 2803.895928191592 5194.660122295323 2804.0377273032527 5195.34371766683 2804.173926801253 5196.028438781936 C 2804.3101262992536 5196.71315989704 2804.440721625379 5197.398983840052 2804.5656996683056 5198.085841756591 C 2804.6906777112326 5198.772699673133 2804.8100342882954 5199.460568575991 2804.923757416504 5200.149379405492 L 2797.7067603623555 5206.115865825942 C 2797.735313216056 5206.638797165655 2797.769568810846 5207.161401527918 2797.8095210344313 5207.683585663392 C 2797.849473258017 5208.205769798864 2797.8951197339343 5208.727502646658 2797.946452317392 5209.248691112939 C 2797.9977849008496 5209.769879579219 2798.05480053845 5210.290492662325 2798.117489056779 5210.810437468222 C 2798.1801775751082 5211.330382274117 2798.2485352452877 5211.849627875119 2798.3225498701217 5212.368081621194 L 2806.5648781066143 5216.811957398812 C 2806.5877204629614 5217.5097192030735 2806.6048538548225 5218.207656210898 2806.6162765620634 5218.905698351809 C 2806.6276992693047 5219.603740492719 2806.6334109096397 5220.301864405201 2806.6334109096397 5221 C 2806.6334109096397 5221.698135594799 2806.6276992693047 5222.396259507281 2806.6162765620634 5223.094301648191 C 2806.6048538548225 5223.792343789102 2806.5877204629614 5224.4902807969265 2806.5648781066143 5225.188042601188 L 2798.3225498701217 5229.631918378806 C 2798.2485352452877 5230.150372124881 2798.1801775751082 5230.669617725883 2798.117489056779 5231.189562531778 C 2798.05480053845 5231.709507337675 2797.9977849008496 5232.23012042078 2797.946452317392 5232.751308887061 C 2797.8951197339343 5233.272497353342 2797.849473258017 5233.794230201136 2797.8095210344313 5234.316414336608 C 2797.769568810846 5234.838598472082 2797.735313216056 5235.361202834345 2797.7067603623555 5235.884134174058 L 2804.923757416504 5241.850620594508 C 2804.8100342882954 5242.539431424009 2804.6906777112326 5243.227300326867 2804.5656996683056 5243.914158243409 C 2804.440721625379 5244.601016159948 2804.3101262992536 5245.286840102959 2804.173926801253 5245.971561218064 C 2804.0377273032527 5246.656282333169 2803.895928191592 5247.339877704677 2803.748543702417 5248.0222787019475 C 2803.6011592132418 5248.704679699218 2803.4481942790967 5249.385863484211 2803.289664257138 5250.0657616684 L 2794.3387528900794 5252.816251149209 C 2794.1650151272343 5253.310303414938 2793.9966711390157 5253.8062359374235 2793.833750963375 5254.3039602264425 C 2793.6708307877348 5254.80168451546 2793.513344115595 5255.3011709650555 2793.3613190476167 5255.802330450863 C 2793.2092939796385 5256.30348993667 2793.062739558674 5256.806292648404 2792.9216819347207 5257.310648869971 C 2792.7806243107675 5257.815005091538 2792.645071874305 5258.320884822503 2792.5150488122254 5258.828197797732 L 2798.4293695345773 5266.088006133918 C 2798.1834512378528 5266.741395374773 2797.932191498187 5267.39276175649 2797.675615541193 5268.0420398841225 C 2797.4190395842 5268.691318011753 2797.1571559967583 5269.338486155779 2796.8899910710843 5269.983479342732 C 2796.6228261454103 5270.628472529685 2796.350388822763 5271.271269173455 2796.0727064549187 5271.911804739458 C 2795.795024087073 5272.552340305462 2795.5121059672815 5273.190593356768 2795.22398049955 5273.8264998149625 L 2785.9084645060316 5274.777903230707 C 2785.6416802499702 5275.228567864582 2785.3798193087696 5275.682128899842 2785.1229284068013 5276.13850540668 C 2784.866037504832 5276.59488191352 2784.6141319226444 5277.054046745461 2784.367256608251 5277.515917972811 C 2784.120381293858 5277.977789200158 2783.878550932055 5278.442339349595 2783.641808673117 5278.909485530508 C 2783.405066414178 5279.376631711422 2783.1734263401586 5279.846346136724 2782.946929783057 5280.318544994338 L 2787.3312901450417 5288.592684883247 C 2786.9626271820334 5289.185543153352 2786.589120050649 5289.775375369172 2786.2108062497277 5290.362122313568 C 2785.8324924488065 5290.948869257964 2785.4493846394475 5291.532511294166 2785.0615212843654 5292.112989826509 C 2784.6736579292833 5292.6934683588515 2784.2810520091743 5293.2707639603495 2783.883742940331 5293.844818672499 C 2783.486433871486 5294.4188733846495 2783.084434950728 5294.989667995449 2782.6777865373665 5295.557145199079 L 2773.3556559728177 5294.672900650044 C 2773.006077592885 5295.062858862923 2772.6607628678203 5295.456618314728 2772.3197734128207 5295.854108746169 C 2771.9787839578207 5296.251599177611 2771.642140055836 5296.652796944913 2771.3099017749114 5297.057630461554 C 2770.9776634939867 5297.462463978197 2770.649850596529 5297.870909163616 2770.3265215748506 5298.282893138121 C 2770.0031925531716 5298.694877112625 2769.6843666397326 5299.110375370325 2769.3701007232785 5299.529313773033 L 2772.0560122149627 5308.499814658928 C 2771.5787720965895 5309.009358747443 2771.0973712430823 5309.51498987609 2770.611857985441 5310.01665728123 C 2770.1263447277997 5310.518324686371 2769.636735314788 5311.0160115786075 2769.1430789015176 5311.509667991878 C 2768.649422488246 5312.00332440515 2768.1517355960123 5312.492933818158 2767.65006819087 5312.978447075801 C 2767.1484007857293 5313.463960333443 2766.6427696570827 5313.94536118695 2766.133225568567 5314.422601305323 L 2757.162724682673 5311.736689813639 C 2756.7437862799643 5312.050955730093 2756.328288022265 5312.3697816435315 2755.91630404776 5312.693110665211 C 2755.5043200732553 5313.0164396868895 2755.095874887836 5313.344252584347 2754.691041371194 5313.676490865271 C 2754.286207854551 5314.008729146198 2753.8850100872514 5314.34537304818 2753.4875196558087 5314.686362503181 C 2753.0900292243664 5315.0273519581815 2752.6962697725644 5315.3726666832445 2752.3063115596838 5315.722245063178 L 2753.1905561087183 5325.044375627726 C 2752.62307890509 5325.451024041087 2752.052284294288 5325.853022961847 2751.4782295821387 5326.250332030691 C 2750.9041748699897 5326.647641099535 2750.326879268491 5327.040247019644 2749.7464007361486 5327.428110374726 C 2749.1659222038043 5327.815973729809 2748.5822801676063 5328.1990815391655 2747.995533223208 5328.577395340088 C 2747.4087862788097 5328.955709141011 2746.8189540629937 5329.329216272393 2746.2260957928866 5329.697879235402 L 2737.951955903977 5325.313518873418 C 2737.479757046365 5325.540015430518 2737.0100426210606 5325.771655504539 2736.5428964401476 5326.008397763477 C 2736.0757502592346 5326.245140022415 2735.611200109798 5326.486970384219 2735.14932888245 5326.733845698611 C 2734.6874576551018 5326.980721013004 2734.228292823159 5327.232626595193 2733.7719163163197 5327.489517497162 C 2733.3155398094796 5327.746408399131 2732.8619787742236 5328.008269340329 2732.4113141403463 5328.275053596391 L 2731.459910724602 5337.590569589911 C 2730.8240042664074 5337.878695057641 2730.185751215102 5338.1616131774335 2729.545215649097 5338.439295545279 C 2728.9046800830924 5338.7169779131245 2728.261883439326 5338.98941523577 2727.6168902523714 5339.256580161445 C 2726.971897065416 5339.52374508712 2726.324728921394 5339.78562867456 2725.6754507937617 5340.042204631553 C 2725.0261726661292 5340.298780588547 2724.374806284413 5340.550040328213 2723.7214170435577 5340.795958624938 L 2716.461608707372 5334.881637902586 C 2715.954295732143 5335.011660964666 2715.4484160011784 5335.147213401128 2714.9440597796115 5335.2882710250815 C 2714.4397035580446 5335.429328649034 2713.9369008463104 5335.575883069999 2713.435741360503 5335.727908137977 C 2712.934581874694 5335.879933205955 2712.4350954251013 5336.037419878095 2711.937371136082 5336.200340053735 C 2711.439646847063 5336.3632602293765 2710.9437143245777 5336.531604217595 2710.449662058849 5336.70534198044 L 2707.6991725780395 5345.656253347499 C 2707.019274393848 5345.8147833694575 2706.3380906088605 5345.967748303601 2705.655689611587 5346.115132792777 C 2704.973288614316 5346.262517281953 2704.289693242809 5346.404316393613 2703.604972127704 5346.540515891614 C 2702.920251012597 5346.676715389614 2702.23442706959 5346.807310715739 2701.5475691530487 5346.932288758666 C 2700.8607112365075 5347.057266801593 2700.1728423336494 5347.176623378656 2699.484031504147 5347.290346506865 L 2693.5175450836978 5340.073349452716 C 2692.9946137439833 5340.101902306416 2692.4720093817227 5340.136157901206 2691.9498252462486 5340.176110124792 C 2691.4276411107758 5340.216062348378 2690.9059082629815 5340.261708824295 2690.3847197967007 5340.313041407752 C 2689.86353133042 5340.36437399121 2689.3429182473146 5340.42138962881 2688.8229734414185 5340.484078147139 C 2688.3030286355224 5340.546766665469 2687.783783034521 5340.615124335648 2687.265329288446 5340.6891389604825 L 2682.8214535108273 5348.931467196975 C 2682.123691706566 5348.954309553322 2681.4257546987415 5348.971442945183 2680.72771255783 5348.982865652424 C 2680.029670416921 5348.994288359665 2679.331546504439 5349 2678.6334109096397 5349 C 2677.9352753148405 5349 2677.2371514023584 5348.994288359665 2676.5391092614495 5348.982865652424 C 2675.841067120538 5348.971442945183 2675.1431301127136 5348.954309553322 2674.4453683084525 5348.931467196975 L 2670.0014925308333 5340.6891389604825 C 2669.4830387847583 5340.615124335648 2668.963793183757 5340.546766665469 2668.443848377861 5340.484078147139 C 2667.9239035719634 5340.42138962881 2667.403290488861 5340.36437399121 2666.8821020225787 5340.313041407752 C 2666.360913556298 5340.261708824295 2665.8391807085036 5340.216062348377 2665.316996573031 5340.176110124792 C 2664.7948124375584 5340.136157901206 2664.2722080752947 5340.101902306416 2663.7492767355816 5340.073349452716 L 2657.7827903151324 5347.290346506865 C 2657.093979485632 5347.176623378656 2656.4061105827695 5347.057266801592 2655.7192526662307 5346.932288758666 C 2655.032394749692 5346.80731071574 2654.34657080668 5346.6767153896135 2653.6618496915753 5346.540515891614 C 2652.9771285764705 5346.404316393613 2652.2935332049633 5346.262517281953 2651.611132207692 5346.115132792777 C 2650.928731210419 5345.967748303601 2650.2475474254315 5345.8147833694575 2649.56764924124 5345.656253347499 L 2646.8171597604305 5336.70534198044 C 2646.3231074947034 5336.5316042175955 2645.827174972215 5336.363260229376 2645.329450683197 5336.200340053735 C 2644.83172639418 5336.0374198780955 2644.332239944584 5335.879933205955 2643.8310804587763 5335.727908137977 C 2643.329920972969 5335.575883069999 2642.827118261235 5335.429328649034 2642.322762039668 5335.2882710250815 C 2641.8184058180996 5335.147213401127 2641.312526087138 5335.011660964666 2640.8052131119075 5334.881637902586 L 2633.5454047757216 5340.795958624938 C 2632.8920155348687 5340.550040328214 2632.240649153148 5340.298780588546 2631.5913710255177 5340.042204631553 C 2630.9420928978875 5339.785628674561 2630.294924753861 5339.523745087119 2629.6499315669084 5339.256580161445 C 2629.0049383799533 5338.98941523577 2628.362141736187 5338.7169779131245 2627.7216061701824 5338.439295545279 C 2627.08107060418 5338.161613177434 2626.4428175528697 5337.8786950576405 2625.806911094677 5337.590569589911 L 2624.855507678933 5328.275053596391 C 2624.404843045057 5328.00826934033 2623.9512820097984 5327.74640839913 2623.4949055029597 5327.489517497162 C 2623.0385289961205 5327.232626595193 2622.5793641641776 5326.980721013004 2622.1174929368294 5326.733845698611 C 2621.65562170948 5326.486970384218 2621.191071560046 5326.245140022416 2620.7239253791317 5326.008397763477 C 2620.2567791982187 5325.771655504539 2619.787064772914 5325.540015430518 2619.3148659153026 5325.313518873418 L 2611.040726026393 5329.697879235402 C 2610.4478677562856 5329.329216272393 2609.8580355404697 5328.955709141011 2609.2712885960714 5328.5773953400885 C 2608.6845416516735 5328.1990815391655 2608.100899615475 5327.815973729809 2607.5204210831307 5327.428110374726 C 2606.939942550788 5327.040247019644 2606.3626469492897 5326.647641099535 2605.7885922371406 5326.250332030691 C 2605.2145375249916 5325.853022961847 2604.6437429141893 5325.451024041087 2604.076265710561 5325.044375627726 L 2604.9605102595956 5315.722245063178 C 2604.570552046716 5315.372666683245 2604.176792594912 5315.027351958181 2603.7793021634707 5314.686362503181 C 2603.381811732029 5314.3453730481815 2602.980613964727 5314.008729146197 2602.5757804480854 5313.676490865271 C 2602.170946931442 5313.344252584346 2601.762501746025 5313.01643968689 2601.350517771519 5312.693110665211 C 2600.9385337970143 5312.3697816435315 2600.523035539315 5312.050955730093 2600.1040971366065 5311.736689813639 L 2591.1335962507123 5314.422601305323 C 2590.6240521621967 5313.94536118695 2590.11842103355 5313.463960333443 2589.6167536284092 5312.978447075801 C 2589.115086223269 5312.49293381816 2588.617399331032 5312.003324405148 2588.123742917762 5311.509667991878 C 2587.6300865044896 5311.016011578606 2587.1404770914814 5310.518324686373 2586.6549638338383 5310.01665728123 C 2586.169450576197 5309.51498987609 2585.68804972269 5309.009358747443 2585.2108096043166 5308.499814658928 L 2587.896721096001 5299.529313773033 C 2587.582455179547 5299.110375370325 2587.2636292661077 5298.694877112625 2586.9403002444287 5298.282893138121 C 2586.61697122275 5297.870909163616 2586.2891583252926 5297.462463978197 2585.956920044368 5297.057630461554 C 2585.6246817634424 5296.652796944912 2585.2880378614595 5296.251599177612 2584.9470484064586 5295.854108746169 C 2584.6060589514577 5295.456618314726 2584.260744226395 5295.062858862925 2583.9111658464617 5294.672900650044 L 2574.589035281913 5295.557145199079 C 2574.1823868685515 5294.989667995449 2573.7803879477933 5294.4188733846495 2573.3830788789487 5293.844818672499 C 2572.985769810105 5293.2707639603495 2572.593163889996 5292.6934683588515 2572.205300534914 5292.112989826509 C 2571.817437179832 5291.532511294166 2571.434329370473 5290.948869257964 2571.0560155695516 5290.362122313568 C 2570.6777017686304 5289.775375369172 2570.304194637246 5289.185543153352 2569.9355316742376 5288.592684883247 L 2574.3198920362224 5280.318544994338 C 2574.093395479121 5279.8463461367255 2573.8617554051007 5279.3766317114205 2573.6250131461625 5278.909485530508 C 2573.388270887224 5278.442339349594 2573.146440525422 5277.97778920016 2572.8995652110284 5277.515917972811 C 2572.652689896635 5277.054046745461 2572.4007843144473 5276.59488191352 2572.143893412478 5276.13850540668 C 2571.8870025105093 5275.68212889984 2571.62514156931 5275.228567864584 2571.358357313248 5274.777903230707 L 2562.042841319729 5273.8264998149625 C 2561.7547158519988 5273.19059335677 2561.4717977322052 5272.55234030546 2561.194115364361 5271.911804739458 C 2560.9164329965156 5271.271269173453 2560.64399567387 5270.628472529686 2560.376830748195 5269.983479342732 C 2560.109665822521 5269.338486155779 2559.847782235079 5268.691318011753 2559.5912062780862 5268.0420398841225 C 2559.3346303210924 5267.39276175649 2559.0833705814266 5266.741395374773 2558.837452284702 5266.088006133918 L 2564.751773007054 5258.828197797732 C 2564.6217499449745 5258.320884822503 2564.486197508512 5257.815005091539 2564.3451398845586 5257.310648869971 C 2564.2040822606054 5256.806292648404 2564.057527839641 5256.30348993667 2563.9055027716627 5255.802330450863 C 2563.7534777036844 5255.3011709650555 2563.5959910315446 5254.80168451546 2563.433070855904 5254.3039602264425 C 2563.2701506802637 5253.8062359374235 2563.101806692045 5253.310303414938 2562.9280689292004 5252.816251149209 L 2553.977157562141 5250.0657616684 C 2553.8186275401827 5249.385863484211 2553.6656626060376 5248.704679699219 2553.5182781168623 5248.0222787019475 C 2553.3708936276876 5247.339877704677 2553.2290945160266 5246.65628233317 2553.0928950180264 5245.971561218064 C 2552.9566955200257 5245.28684010296 2552.8261001939004 5244.601016159948 2552.701122150974 5243.9141582434095 C 2552.576144108047 5243.22730032687 2552.4567875309835 5242.5394314240075 2552.3430644027753 5241.850620594508 L 2559.560061456924 5235.884134174058 C 2559.5315086032233 5235.361202834345 2559.4972530084333 5234.838598472082 2559.457300784848 5234.316414336608 C 2559.4173485612623 5233.794230201136 2559.371702085345 5233.272497353342 2559.3203695018874 5232.751308887061 C 2559.2690369184297 5232.23012042078 2559.2120212808295 5231.709507337675 2559.1493327625003 5231.189562531778 C 2559.086644244171 5230.669617725883 2559.0182865739916 5230.150372124881 2558.9442719491576 5229.631918378806 L 2550.701943712665 5225.188042601188 C 2550.679101356318 5224.4902807969265 2550.661967964457 5223.792343789102 2550.650545257216 5223.094301648191 C 2550.6391225499747 5222.396259507281 2550.6334109096397 5221.698135594799 2550.6334109096397 5221 C 2550.6334109096397 5220.301864405201 2550.6391225499747 5219.603740492719 2550.650545257216 5218.905698351809 C 2550.661967964457 5218.207656210898 2550.679101356318 5217.5097192030735 2550.701943712665 5216.811957398812 L 2558.9442719491576 5212.368081621194 C 2559.0182865739916 5211.849627875119 2559.086644244171 5211.330382274117 2559.1493327625003 5210.810437468222 C 2559.2120212808295 5210.290492662325 2559.2690369184297 5209.76987957922 2559.3203695018874 5209.248691112939 C 2559.371702085345 5208.727502646658 2559.4173485612623 5208.205769798864 2559.457300784848 5207.683585663392 C 2559.4972530084333 5207.161401527918 2559.5315086032233 5206.638797165655 2559.560061456924 5206.115865825942 L 2552.3430644027753 5200.149379405492 C 2552.4567875309835 5199.4605685759925 2552.576144108047 5198.77269967313 2552.701122150974 5198.085841756591 C 2552.826100193901 5197.398983840049 2552.9566955200253 5196.713159897043 2553.0928950180264 5196.028438781936 C 2553.2290945160266 5195.34371766683 2553.3708936276876 5194.660122295323 2553.5182781168623 5193.9777212980525 C 2553.6656626060376 5193.295320300781 2553.8186275401827 5192.614136515789 2553.977157562141 5191.9342383316 L 2562.9280689292004 5189.183748850791 C 2563.101806692045 5188.689696585062 2563.2701506802637 5188.1937640625765 2563.433070855904 5187.6960397735575 C 2563.5959910315446 5187.19831548454 2563.7534777036844 5186.6988290349445 2563.9055027716627 5186.197669549137 C 2564.0575278396414 5185.696510063328 2564.204082260605 5185.1937073515965 2564.3451398845586 5184.689351130029 C 2564.4861975085123 5184.18499490846 2564.621749944974 5183.679115177499 2564.751773007054 5183.171802202268 L 2558.837452284702 5175.911993866082 C 2559.0833705814257 5175.258604625229 2559.3346303210933 5174.607238243509 2559.5912062780862 5173.9579601158775 C 2559.8477822350796 5173.308681988246 2560.10966582252 5172.661513844223 2560.376830748195 5172.016520657268 C 2560.643995673869 5171.371527470315 2560.9164329965165 5170.728730826545 2561.1941153643606 5170.088195260542 C 2561.471797732206 5169.447659694538 2561.754715851998 5168.809406643232 2562.042841319729 5168.1735001850375 L 2571.358357313248 5167.222096769293 C 2571.62514156931 5166.771432135416 2571.8870025105093 5166.31787110016 2572.143893412478 5165.86149459332 C 2572.4007843144473 5165.40511808648 2572.652689896635 5164.945953254539 2572.8995652110284 5164.484082027189 C 2573.1464405254214 5164.022210799842 2573.3882708872243 5163.557660650405 2573.6250131461625 5163.090514469492 C 2573.8617554051007 5162.6233682885795 2574.093395479121 5162.1536538632745 2574.3198920362224 5161.681455005662 L 2569.9355316742376 5153.407315116753 C 2570.304194637246 5152.814456846648 2570.6777017686304 5152.224624630828 2571.0560155695516 5151.637877686432 C 2571.434329370473 5151.051130742036 2571.817437179832 5150.467488705834 2572.205300534914 5149.887010173491 C 2572.593163889997 5149.306531641147 2572.9857698101036 5148.729236039652 2573.3830788789483 5148.155181327501 C 2573.7803879477933 5147.5811266153505 2574.1823868685515 5147.010332004551 2574.589035281913 5146.442854800921 L 2583.9111658464617 5147.327099349956 C 2584.2607442263943 5146.937141137077 2584.606058951459 5146.543381685272 2584.9470484064586 5146.145891253831 C 2585.2880378614586 5145.748400822389 2585.6246817634433 5145.347203055087 2585.956920044368 5144.942369538446 C 2586.2891583252926 5144.537536021803 2586.61697122275 5144.129090836384 2586.9403002444287 5143.717106861879 C 2587.2636292661077 5143.305122887375 2587.5824551795467 5142.889624629675 2587.896721096001 5142.470686226967 L 2585.2108096043166 5133.500185341072 C 2585.688049722691 5132.990641252555 2586.1694505761952 5132.485010123912 2586.6549638338383 5131.98334271877 C 2587.1404770914796 5131.481675313629 2587.6300865044914 5130.9839884213925 2588.123742917762 5130.490332008122 C 2588.6173993310335 5129.99667559485 2589.115086223267 5129.507066181842 2589.6167536284092 5129.021552924199 C 2590.11842103355 5128.536039666557 2590.6240521621967 5128.05463881305 2591.1335962507123 5127.577398694677 L 2600.1040971366065 5130.263310186361 C 2600.523035539315 5129.949044269907 2600.9385337970143 5129.6302183564685 2601.350517771519 5129.306889334789 C 2601.762501746024 5128.9835603131105 2602.170946931443 5128.655747415653 2602.575780448085 5128.323509134729 C 2602.980613964727 5127.991270853804 2603.3818117320293 5127.6546269518185 2603.7793021634707 5127.313637496819 C 2604.176792594913 5126.9726480418185 2604.570552046715 5126.6273333167555 2604.9605102595956 5126.277754936822 L 2604.076265710561 5116.955624372274 C 2604.6437429141893 5116.548975958913 2605.2145375249916 5116.146977038153 2605.7885922371406 5115.749667969309 C 2606.3626469492897 5115.352358900465 2606.939942550788 5114.959752980356 2607.5204210831307 5114.571889625274 C 2608.1008996154733 5114.184026270193 2608.6845416516753 5113.800918460834 2609.2712885960714 5113.422604659912 C 2609.858035540468 5113.04429085899 2610.4478677562875 5112.670783727606 2611.040726026393 5112.302120764598 L 2619.3148659153026 5116.686481126583 C 2619.787064772914 5116.459984569482 2620.2567791982187 5116.228344495461 2620.7239253791317 5115.991602236523 C 2621.1910715600443 5115.754859977585 2621.6556217094812 5115.513029615781 2622.1174929368294 5115.266154301389 C 2622.579364164179 5115.019278986995 2623.038528996119 5114.767373404808 2623.4949055029597 5114.510482502838 C 2623.9512820097984 5114.25359160087 2624.404843045057 5113.99173065967 2624.855507678933 5113.724946403609 L 2625.806911094677 5104.40943041009 C 2626.442817552872 5104.121304942359 2627.0810706041775 5103.8383868225665 2627.721606170182 5103.560704454721 C 2628.362141736187 5103.2830220868755 2629.0049383799533 5103.01058476423 2629.649931566908 5102.743419838555 C 2630.294924753863 5102.47625491288 2630.9420928978852 5102.21437132544 2631.5913710255177 5101.957795368447 C 2632.24064915315 5101.701219411453 2632.8920155348665 5101.449959671787 2633.5454047757216 5101.204041375062 L 2640.8052131119075 5107.118362097414 C 2641.312526087138 5106.988339035334 2641.8184058180996 5106.852786598873 2642.322762039668 5106.711728974919 C 2642.827118261235 5106.570671350966 2643.329920972969 5106.424116930001 2643.8310804587763 5106.272091862023 C 2644.332239944584 5106.120066794045 2644.83172639418 5105.9625801219045 2645.329450683197 5105.799659946265 C 2645.827174972216 5105.6367397706235 2646.3231074947016 5105.468395782405 2646.8171597604305 5105.29465801956 L 2649.56764924124 5096.343746652501 C 2650.2475474254293 5096.185216630543 2650.928731210421 5096.032251696398 2651.611132207692 5095.884867207223 C 2652.2935332049656 5095.737482718047 2652.977128576468 5095.595683606387 2653.6618496915753 5095.459484108386 C 2654.34657080668 5095.3232846103865 2655.032394749692 5095.19268928426 2655.7192526662307 5095.067711241334 C 2656.406110582772 5094.942733198407 2657.09397948563 5094.823376621344 2657.7827903151324 5094.709653493135 L 2663.7492767355816 5101.926650547284 C 2664.272208075296 5101.898097693584 2664.7948124375566 5101.863842098794 2665.316996573031 5101.823889875208 C 2665.839180708503 5101.783937651623 2666.360913556298 5101.738291175705 2666.8821020225787 5101.686958592248 C 2667.4032904888595 5101.63562600879 2667.9239035719647 5101.57861037119 2668.443848377861 5101.515921852861 C 2668.9637931837588 5101.453233334531 2669.483038784757 5101.384875664352 2670.0014925308333 5101.3108610395175 Z"/></clipPath></svg>