<?xml version = "1.0" standalone = "no"?>
<svg xmlns="http://www.w3.org/2000/svg" xmlns:xlink="http://www.w3.org/1999/xlink" font-family="Arial" viewBox="2357 5092 67 66" width="67" height="66"><g clip-path="url(#clip-nfSEqcUs4Bj3z-nWdmtrotelJLi)"><path transform="matrix(1 0 0 1 2358.0000000000005 5093)" d="M 28.2388032813492 0.22180937744235862 C 28.862811703562787 0.14795311363184993 29.4888601571953 0.09249276504702664 30.11613428316195 0.05550047408909009 C 30.7434084091286 0.018508183131153544 31.371636045991224 0 32 0 C 32.628363954008776 0 33.256591590871395 0.018508183131153544 33.88386571683805 0.05550047408909009 C 34.511139842804695 0.09249276504702664 35.137188296437216 0.14795311363184993 35.76119671865081 0.22180937744235862 L 37.60268873254173 8.663121910455764 C 38.14988675994857 8.969719885921577 38.70601260660167 9.260104633873713 39.270340263954196 9.533897064201277 C 39.8346679213067 9.80768949452883 40.406951657069904 10.064770386350691 40.986444368971846 10.304804126916839 C 41.56593708087378 10.544837867482986 42.15238643311543 10.76771993588319 42.745026830562665 10.973159365086108 C 43.33766722800977 11.17859879428898 43.93624060980172 11.366506127220497 44.539965553182775 11.536636055501788 L 51.81100637791469 6.869858211816162 C 52.30447122975295 7.258874533707399 52.78637072523915 7.662341252051004 53.256078013161016 8.079733540396905 C 53.72578530108288 8.497125828742806 54.18309658503672 8.928262589097681 54.62741699796952 9.372583002030478 C 55.071737410902315 9.816903414963274 55.50287417125719 10.274214698917113 55.92026645960309 10.74392198683898 C 56.33765874794899 11.213629274760844 56.7411254662926 11.695528770247048 57.130141788183835 12.18899362208531 L 52.46336394449821 19.460034446817225 C 52.63349387277954 20.06375939019844 52.82140120571097 20.662332771990094 53.026840634913896 21.254973169437346 C 53.23228006411681 21.84761356688458 53.45516213251702 22.434062919126237 53.695195873083165 23.013555631028176 C 53.935229613649255 23.59304834292998 54.19231050547121 24.165332078693393 54.4661029357987 24.72965973604577 C 54.73989536612619 25.29398739339815 55.030280114078494 25.850113240051563 55.336878089544236 26.39731126745827 L 63.778190622557645 28.238803281349195 C 63.85204688636815 28.862811703562787 63.90750723495297 29.488860157195298 63.94449952591091 30.116134283161948 C 63.98149181686885 30.743408409128598 64 31.371636045991227 64 32 C 64 32.628363954008776 63.98149181686885 33.256591590871395 63.94449952591091 33.88386571683805 C 63.90750723495297 34.5111398428047 63.85204688636815 35.13718829643721 63.778190622557645 35.76119671865081 L 55.336878089544236 37.60268873254173 C 55.03028011407843 38.14988675994856 54.73989536612626 38.70601260660172 54.4661029357987 39.27034026395423 C 54.19231050547114 39.83466792130676 53.93522961364932 40.40695165706987 53.695195873083165 40.986444368971824 C 53.455162132517074 41.565937080873624 53.23228006411677 42.15238643311553 53.0268406349139 42.74502683056262 C 52.821401205710984 43.33766722800987 52.63349387277954 43.93624060980156 52.46336394449821 44.53996555318277 L 57.130141788183835 51.81100637791469 C 56.7411254662926 52.30447122975295 56.33765874794899 52.78637072523915 55.92026645960309 53.256078013161016 C 55.50287417125719 53.72578530108289 55.07173741090232 54.18309658503672 54.62741699796952 54.62741699796952 C 54.18309658503672 55.071737410902315 53.72578530108289 55.50287417125719 53.256078013161016 55.92026645960309 C 52.78637072523915 56.33765874794899 52.30447122975296 56.74112546629259 51.811006377914694 57.130141788183835 L 44.539965553182775 52.46336394449821 C 43.93624060980172 52.633493872779496 43.33766722800972 52.82140120571103 42.74502683056264 53.026840634913896 C 42.152386433115545 53.232280064116765 41.565937080873624 53.455162132517074 40.98644436897183 53.695195873083165 C 40.406951657070024 53.935229613649255 39.83466792130661 54.19231050547121 39.27034026395423 54.4661029357987 C 38.70601260660186 54.73989536612619 38.14988675994841 55.03028011407851 37.60268873254173 55.336878089544236 L 35.76119671865081 63.778190622557645 C 35.137188296437216 63.85204688636815 34.511139842804695 63.90750723495297 33.883865716838045 63.94449952591091 C 33.256591590871395 63.98149181686885 32.628363954008776 64 32 64 C 31.371636045991224 64 30.743408409128605 63.98149181686885 30.11613428316195 63.94449952591091 C 29.4888601571953 63.90750723495297 28.86281170356279 63.85204688636815 28.2388032813492 63.778190622557645 L 26.39731126745827 55.336878089544236 C 25.85011324005145 55.03028011407843 25.293987393398282 54.73989536612626 24.72965973604576 54.46610293579871 C 24.165332078693382 54.19231050547122 23.59304834292997 53.935229613649255 23.01355563102817 53.695195873083165 C 22.43406291912622 53.45516213251702 21.847613566884608 53.23228006411683 21.254973169437363 53.02684063491391 C 20.662332771990275 52.82140120571104 20.06375939019827 52.6334938727795 19.46003444681723 52.46336394449821 L 12.188993622085313 57.13014178818384 C 11.695528770247051 56.7411254662926 11.213629274760862 56.33765874794901 10.743921986838995 55.920266459603106 C 10.274214698917131 55.502874171257204 9.816903414963274 55.071737410902315 9.372583002030481 54.627416997969526 C 8.928262589097685 54.18309658503673 8.497125828742814 53.725785301082894 8.079733540396912 53.25607801316102 C 7.662341252051011 52.78637072523915 7.258874533707413 52.30447122975296 6.869858211816165 51.811006377914694 L 11.536636055501788 44.539965553182775 C 11.366506127220454 43.936240609801565 11.17859879428903 43.3376672280099 10.973159365086104 42.74502683056265 C 10.767719935883182 42.1523864331154 10.544837867482997 41.565937080873795 10.304804126916846 40.986444368971846 C 10.064770386350695 40.406951657069904 9.807689494528848 39.83466792130674 9.533897064201291 39.270340263954225 C 9.260104633873802 38.706012606601846 8.969719885921503 38.14988675994843 8.663121910455764 37.60268873254173 L 0.22180937744235862 35.76119671865081 C 0.14795311363184993 35.137188296437216 0.09249276504702664 34.51113984280471 0.05550047408909009 33.88386571683806 C 0.018508183131153544 33.25659159087141 0 32.628363954008776 0 32 C 0 31.371636045991227 0.018508183131153544 30.743408409128605 0.05550047408909009 30.116134283161955 C 0.09249276504702664 29.488860157195305 0.14795311363184993 28.862811703562794 0.22180937744235862 28.2388032813492 L 8.663121910455764 26.397311267458274 C 8.96971988592157 25.850113240051442 9.26010463387373 25.293987393398297 9.533897064201287 24.729659736045775 C 9.807689494528848 24.16533207869325 10.064770386350673 23.593048342930132 10.304804126916828 23.01355563102818 C 10.544837867482975 22.43406291912624 10.767719935883179 21.84761356688459 10.973159365086097 21.254973169437353 C 11.178598794289023 20.6623327719901 11.366506127220443 20.06375939019845 11.536636055501784 19.460034446817232 L 6.869858211816158 12.18899362208532 C 7.258874533707392 11.695528770247059 7.662341252050997 11.213629274760859 8.079733540396898 10.743921986838995 C 8.4971258287428 10.274214698917131 8.928262589097677 9.816903414963281 9.372583002030474 9.372583002030485 C 9.81690341496327 8.928262589097688 10.274214698917117 8.49712582874281 10.74392198683898 8.079733540396909 C 11.213629274760844 7.662341252051007 11.695528770247044 7.258874533707406 12.188993622085306 6.869858211816165 L 19.460034446817225 11.536636055501795 C 20.063759390198292 11.366506127220504 20.662332771990215 11.178598794288995 21.25497316943732 10.973159365086119 C 21.8476135668844 10.767719935883253 22.43406291912636 10.54483786748293 23.013555631028147 10.304804126916846 C 23.593048342930086 10.064770386350698 24.16533207869329 9.807689494528834 24.729659736045797 9.53389706420128 C 25.293987393398176 9.260104633873791 25.850113240051588 8.969719885921489 26.397311267458267 8.663121910455764 Z" fill-rule="evenodd" fill="#ffffff" stroke="#000000" stroke-width="2" stroke-linecap="butt" stroke-linejoin="round"/><g><path d="M 2384.0000000000005 5125 A 6 6 0 0 1 2396.0000000000005 5125 A 6 6 0 0 1 2384.0000000000005 5125 Z" fill="none" stroke="#000000" stroke-width="4" stroke-linecap="butt" stroke-linejoin="round"/></g></g><clipPath id="clip-nfSEqcUs4Bj3z-nWdmtrotelJLi"><path d="M 2384.0000000000005 5125 A 6 6 0 0 1 2396.0000000000005 5125 A 6 6 0 0 1 2384.0000000000005 5125 Z M 2257.0000000000005 5258 L 2523.0000000000005 5258 L 2523.0000000000005 4992 L 2257.0000000000005 4992 Z" clip-rule="evenodd"/></clipPath><clipPath id="clip-nfSEqcUs4Bj3z-outside"><path d="M 2386.2388032813496 5093.221809377443 C 2386.8628117035632 5093.147953113632 2387.4888601571956 5093.092492765047 2388.1161342831624 5093.055500474089 C 2388.743408409129 5093.018508183131 2389.3716360459916 5093 2390.0000000000005 5093 C 2390.6283639540093 5093 2391.2565915908717 5093.018508183131 2391.8838657168385 5093.055500474089 C 2392.5111398428053 5093.092492765047 2393.1371882964377 5093.147953113632 2393.7611967186513 5093.221809377443 L 2395.602688732542 5101.663121910456 C 2396.149886759949 5101.969719885921 2396.706012606602 5102.260104633874 2397.2703402639545 5102.5338970642015 C 2397.8346679213073 5102.807689494529 2398.4069516570703 5103.064770386351 2398.986444368972 5103.304804126917 C 2399.5659370808744 5103.544837867483 2400.1523864331157 5103.767719935883 2400.745026830563 5103.973159365086 C 2401.33766722801 5104.178598794289 2401.936240609802 5104.36650612722 2402.5399655531833 5104.536636055502 L 2409.811006377915 5099.869858211816 C 2410.3044712297533 5100.258874533707 2410.7863707252395 5100.662341252051 2411.2560780131616 5101.079733540397 C 2411.7257853010833 5101.497125828742 2412.183096585037 5101.928262589097 2412.62741699797 5102.37258300203 C 2413.0717374109026 5102.816903414963 2413.5028741712576 5103.274214698917 2413.9202664596037 5103.743921986839 C 2414.3376587479493 5104.213629274761 2414.741125466293 5104.695528770247 2415.130141788184 5105.188993622085 L 2410.4633639444987 5112.460034446817 C 2410.63349387278 5113.063759390198 2410.8214012057115 5113.66233277199 2411.026840634914 5114.254973169437 C 2411.2322800641173 5114.847613566884 2411.4551621325177 5115.4340629191265 2411.695195873084 5116.013555631028 C 2411.93522961365 5116.59304834293 2412.1923105054716 5117.165332078694 2412.466102935799 5117.7296597360455 C 2412.739895366127 5118.293987393398 2413.030280114079 5118.8501132400515 2413.336878089545 5119.3973112674585 L 2421.778190622558 5121.23880328135 C 2421.8520468863685 5121.862811703563 2421.9075072349533 5122.488860157196 2421.9444995259114 5123.116134283162 C 2421.9814918168695 5123.743408409128 2422.0000000000005 5124.371636045991 2422.0000000000005 5125 C 2422.0000000000005 5125.628363954009 2421.9814918168695 5126.256591590872 2421.9444995259114 5126.883865716838 C 2421.9075072349533 5127.511139842804 2421.8520468863685 5128.137188296437 2421.778190622558 5128.761196718651 L 2413.336878089545 5130.6026887325415 C 2413.030280114079 5131.1498867599485 2412.739895366127 5131.706012606602 2412.466102935799 5132.2703402639545 C 2412.1923105054716 5132.834667921306 2411.93522961365 5133.40695165707 2411.695195873084 5133.986444368972 C 2411.4551621325177 5134.5659370808735 2411.2322800641173 5135.152386433116 2411.026840634914 5135.745026830563 C 2410.8214012057115 5136.33766722801 2410.63349387278 5136.936240609802 2410.4633639444987 5137.539965553183 L 2415.130141788184 5144.811006377915 C 2414.741125466293 5145.304471229753 2414.3376587479493 5145.786370725239 2413.9202664596037 5146.256078013161 C 2413.5028741712576 5146.725785301083 2413.0717374109026 5147.183096585037 2412.62741699797 5147.62741699797 C 2412.183096585037 5148.071737410903 2411.7257853010833 5148.502874171258 2411.2560780131616 5148.920266459603 C 2410.7863707252395 5149.337658747949 2410.3044712297533 5149.741125466293 2409.811006377915 5150.130141788184 L 2402.5399655531833 5145.463363944498 C 2401.936240609802 5145.63349387278 2401.33766722801 5145.821401205711 2400.745026830563 5146.026840634914 C 2400.152386433116 5146.232280064117 2399.565937080874 5146.455162132517 2398.986444368972 5146.695195873083 C 2398.4069516570703 5146.935229613649 2397.834667921307 5147.192310505471 2397.2703402639545 5147.4661029357985 C 2396.706012606602 5147.739895366126 2396.149886759949 5148.030280114079 2395.602688732542 5148.336878089544 L 2393.7611967186513 5156.778190622557 C 2393.1371882964377 5156.852046886368 2392.5111398428053 5156.907507234953 2391.8838657168385 5156.944499525911 C 2391.2565915908717 5156.981491816869 2390.6283639540093 5157 2390.0000000000005 5157 C 2389.3716360459916 5157 2388.743408409129 5156.981491816869 2388.1161342831624 5156.944499525911 C 2387.4888601571956 5156.907507234953 2386.8628117035632 5156.852046886368 2386.2388032813496 5156.778190622557 L 2384.397311267459 5148.336878089544 C 2383.850113240052 5148.030280114079 2383.2939873933988 5147.739895366126 2382.7296597360464 5147.4661029357985 C 2382.1653320786936 5147.192310505471 2381.5930483429306 5146.935229613649 2381.013555631029 5146.695195873083 C 2380.4340629191265 5146.455162132517 2379.8476135668852 5146.232280064117 2379.254973169438 5146.026840634914 C 2378.662332771991 5145.8214012057115 2378.063759390199 5145.63349387278 2377.4600344468176 5145.463363944498 L 2370.188993622086 5150.130141788184 C 2369.6955287702476 5149.741125466293 2369.2136292747614 5149.337658747949 2368.7439219868393 5148.920266459603 C 2368.2742146989176 5148.502874171258 2367.8169034149637 5148.071737410903 2367.3725830020308 5147.62741699797 C 2366.9282625890983 5147.183096585037 2366.4971258287433 5146.725785301083 2366.0797335403972 5146.256078013161 C 2365.6623412520516 5145.786370725239 2365.258874533708 5145.304471229753 2364.869858211817 5144.811006377915 L 2369.536636055502 5137.539965553183 C 2369.366506127221 5136.936240609802 2369.1785987942894 5136.33766722801 2368.9731593650868 5135.745026830563 C 2368.7677199358836 5135.152386433116 2368.5448378674832 5134.5659370808735 2368.304804126917 5133.986444368972 C 2368.064770386351 5133.40695165707 2367.8076894945293 5132.834667921306 2367.533897064202 5132.2703402639545 C 2367.260104633874 5131.706012606602 2366.969719885922 5131.1498867599485 2366.663121910456 5130.6026887325415 L 2358.2218093774427 5128.761196718651 C 2358.1479531136324 5128.137188296438 2358.0924927650476 5127.511139842804 2358.0555004740895 5126.883865716838 C 2358.0185081831314 5126.256591590872 2358.0000000000005 5125.628363954009 2358.0000000000005 5125 C 2358.0000000000005 5124.371636045991 2358.0185081831314 5123.743408409128 2358.0555004740895 5123.116134283162 C 2358.0924927650476 5122.488860157196 2358.1479531136324 5121.862811703563 2358.2218093774427 5121.23880328135 L 2366.663121910456 5119.3973112674585 C 2366.969719885922 5118.8501132400515 2367.260104633874 5118.293987393398 2367.533897064202 5117.7296597360455 C 2367.8076894945293 5117.165332078694 2368.064770386351 5116.59304834293 2368.304804126917 5116.013555631028 C 2368.5448378674832 5115.4340629191265 2368.7677199358836 5114.847613566884 2368.9731593650868 5114.254973169437 C 2369.1785987942894 5113.66233277199 2369.366506127221 5113.063759390198 2369.536636055502 5112.460034446817 L 2364.869858211817 5105.188993622085 C 2365.258874533708 5104.695528770247 2365.6623412520516 5104.213629274761 2366.0797335403972 5103.743921986839 C 2366.4971258287433 5103.274214698917 2366.9282625890983 5102.816903414963 2367.3725830020308 5102.37258300203 C 2367.8169034149637 5101.928262589097 2368.2742146989176 5101.497125828742 2368.7439219868393 5101.079733540397 C 2369.2136292747614 5100.662341252051 2369.6955287702476 5100.258874533707 2370.188993622086 5099.869858211816 L 2377.4600344468176 5104.536636055502 C 2378.063759390199 5104.36650612722 2378.662332771991 5104.178598794289 2379.2549731694376 5103.973159365086 C 2379.847613566885 5103.767719935883 2380.434062919127 5103.544837867483 2381.013555631029 5103.304804126917 C 2381.5930483429306 5103.064770386351 2382.1653320786936 5102.807689494529 2382.7296597360464 5102.5338970642015 C 2383.2939873933988 5102.260104633874 2383.850113240052 5101.969719885921 2384.397311267459 5101.663121910456 Z"/></clipPath></svg>