<?xml version = "1.0" standalone = "no"?>
<svg xmlns="http://www.w3.org/2000/svg" xmlns:xlink="http://www.w3.org/1999/xlink" font-family="Arial" viewBox="2421 5092 131 130" width="131" height="130"><g clip-path="url(#clip-n48o-5qPOY6C0-nvNBZ5GC5lWbf)"><path transform="matrix(1 0 0 1 2422.0000000000005 5093)" d="M 60.2322685663239 0.11100094817818018 C 60.859508683171015 0.07401066284297286 61.487259527658075 0.04625942320459586 62.11531691213036 0.027756255870635016 C 62.743374296602646 0.00925308853667417 63.37167011419832 0 64 0 C 64.62832988580169 0 65.25662570339736 0.00925308853667417 65.88468308786965 0.027756255870635016 C 66.51274047234193 0.04625942320459586 67.14049131682899 0.07401066284296576 67.7677314336761 0.11100094817818018 L 70.58209425763891 8.388166410524128 C 71.29249003159751 8.567190589157597 72.00511842499996 8.737235838180766 72.71980895633278 8.898261477806372 C 73.43449948766663 9.059287117432206 74.15119515850124 9.211280305446735 74.86972451431744 9.354204680643917 C 75.58825387013262 9.497129055840894 76.3085596063436 9.630973219629674 77.0304694047923 9.75570515257931 C 77.752379203241 9.880437085528946 78.47583548974552 9.996046839943737 79.20066519244416 10.102506758595752 L 84.96833149194839 3.532413026119805 C 85.56198136722966 3.7382728594289887 86.15256746360512 3.952863904963671 86.73989768194663 4.176116362989291 C 87.32722790028873 4.399368821015138 87.91123855020783 4.631258481921257 88.49173967136575 4.871709919277656 C 89.07224079252308 5.112161356633813 89.64916943508096 5.361148495763501 90.2223379422525 5.618590348962073 C 90.79550644942402 5.876032202160644 91.3648526665251 6.14190085230274 91.9301914030939 6.41610982065783 L 91.36278952382948 15.14022360392336 C 91.95060005221652 15.577477071503587 92.54390933961402 16.007289476265036 93.14257544912128 16.429557994533923 C 93.74124155862948 16.851826512803463 94.3452167450673 17.266517467567276 94.95435651994536 17.673531652647767 C 95.5634962948225 18.080545837727648 96.17775207765757 18.479850792683656 96.79697692053699 18.871350992114742 C 97.41620176341635 19.2628511915458 98.04034628155038 19.64651541229407 98.6692611613507 20.022251870678282 L 106.51215602632203 16.159467080793803 C 106.98183784797541 16.576836739250083 107.44534781674243 17.001100528547845 107.90253516737233 17.432120448987206 C 108.35972251800224 17.863140369426574 108.8105376728665 18.30086968098842 109.25483399593904 18.745166004060955 C 109.69913031901157 19.189462327133498 110.13685963057341 19.640277481997735 110.56787955101278 20.09746483262765 C 110.99889947145215 20.55465218325756 111.4231632607499 21.01816215202458 111.8405329192062 21.48784397367797 L 107.97774812932171 29.33073883864929 C 108.35348458770602 29.959653718449765 108.73714880845412 30.58379823658354 109.12864900788522 31.20302307946296 C 109.52014920731686 31.822247922343266 109.91945416227182 32.436503705176705 110.32646834735228 33.04564348005472 C 110.73348253243276 33.65478325493278 111.14817348719657 34.25875844137059 111.57044200546612 34.85742455087879 C 111.99271052373567 35.456090660386984 112.42252292849572 36.04939994778258 112.85977639607663 36.63721047617052 L 121.58389017934218 36.0698085969061 C 121.85809914769725 36.63514733347489 122.12396779783936 37.20449355057597 122.38140965103793 37.7776620577475 C 122.6388515042365 38.35083056491903 122.8878386433662 38.927759207476925 123.12829008072234 39.50826032863426 C 123.36874151807851 40.08876144979159 123.60063117898508 40.67277209971186 123.82388363701071 41.260102318053356 C 124.04713609503634 41.84743253639486 124.261727140571 42.43801863277034 124.4675869738802 43.03166850805161 L 117.89749324140425 48.799334807555844 C 118.00395316005626 49.52416451025448 118.11956291447109 50.24762079675908 118.24429484742072 50.96953059520777 C 118.36902678037053 51.69144039365752 118.50287094415896 52.41174612986658 118.64579531935614 53.13027548568279 C 118.78871969455312 53.84880484149796 118.94071288256805 54.565500512334474 119.10173852219366 55.28019104366729 C 119.2627641618195 55.99488157500117 119.43280941084217 56.70750996840151 119.61183358947588 57.41790574236109 L 127.88899905182183 60.2322685663239 C 127.92598933715703 60.85950868317101 127.95374057679541 61.487259527658075 127.97224374412937 62.11531691213036 C 127.99074691146333 62.743374296602646 128 63.371670114198324 128 64 C 128 64.62832988580169 127.99074691146333 65.25662570339735 127.97224374412937 65.88468308786963 C 127.95374057679541 66.51274047234192 127.92598933715703 67.14049131682899 127.88899905182183 67.7677314336761 L 119.61183358947588 70.58209425763891 C 119.4328094108424 71.29249003159751 119.26276416181925 72.00511842499995 119.10173852219364 72.71980895633277 C 118.9407128825678 73.43449948766663 118.7887196945533 74.15119515850111 118.6457953193561 74.86972451431734 C 118.50287094415913 75.58825387013249 118.36902678037032 76.3085596063436 118.24429484742069 77.03046940479229 C 118.11956291447106 77.75237920324099 118.00395316005626 78.4758354897455 117.89749324140425 79.20066519244416 L 124.4675869738802 84.96833149194839 C 124.26172714057101 85.56198136722965 124.04713609503631 86.15256746360517 123.82388363701071 86.73989768194666 C 123.60063117898508 87.32722790028816 123.36874151807851 87.91123855020841 123.12829008072234 88.49173967136575 C 122.8878386433662 89.07224079252309 122.63885150423651 89.64916943508095 122.38140965103793 90.22233794225248 C 122.12396779783936 90.795506449424 121.85809914769725 91.36485266652511 121.58389017934218 91.9301914030939 L 112.85977639607664 91.36278952382948 C 112.42252292849577 91.9506000522174 111.99271052373561 92.54390933961314 111.57044200546609 93.14257544912131 C 111.1481734871972 93.7412415586286 110.73348253243213 94.34521674506824 110.32646834735225 94.95435651994538 C 109.91945416227176 95.56349629482344 109.52014920731695 96.17775207765666 109.12864900788527 96.796976920537 C 108.73714880845361 97.41620176341733 108.35348458770656 98.04034628154935 107.97774812932172 98.6692611613507 L 111.8405329192062 106.51215602632203 C 111.4231632607499 106.98183784797541 110.99889947145215 107.44534781674243 110.5678795510128 107.90253516737233 C 110.13685963057344 108.35972251800224 109.69913031901157 108.8105376728665 109.25483399593904 109.25483399593904 C 108.8105376728665 109.69913031901157 108.35972251800224 110.13685963057344 107.90253516737233 110.5678795510128 C 107.44534781674243 110.99889947145215 106.98183784797541 111.42316326074992 106.51215602632203 111.8405329192062 L 98.6692611613507 107.97774812932171 C 98.04034628154932 108.35348458770656 97.41620176341728 108.73714880845363 96.79697692053696 109.12864900788529 C 96.1777520776566 109.52014920731696 95.5634962948234 109.91945416227176 94.95435651994534 110.32646834735226 C 94.34521674506819 110.73348253243213 93.74124155862854 111.1481734871972 93.14257544912125 111.5704420054661 C 92.54390933961398 111.99271052373498 91.95060005221649 112.42252292849642 91.36278952382948 112.85977639607663 L 91.9301914030939 121.58389017934218 C 91.36485266652511 121.85809914769725 90.79550644942401 122.12396779783936 90.2223379422525 122.38140965103793 C 89.64916943508096 122.6388515042365 89.07224079252306 122.8878386433662 88.49173967136574 123.12829008072235 C 87.9112385502084 123.36874151807851 87.32722790028815 123.60063117898508 86.73989768194664 123.82388363701071 C 86.15256746360514 124.04713609503634 85.56198136722966 124.261727140571 84.96833149194839 124.4675869738802 L 79.20066519244416 117.89749324140425 C 78.47583548974552 118.00395316005626 77.75237920324095 118.11956291447106 77.03046940479226 118.24429484742069 C 76.30855960634356 118.36902678037032 75.58825387013246 118.50287094415913 74.86972451431731 118.6457953193561 C 74.15119515850215 118.78871969455307 73.43449948766562 118.94071288256801 72.71980895633281 119.10173852219361 C 72.005118425 119.26276416181922 71.29249003159751 119.4328094108424 70.58209425763891 119.61183358947588 L 67.7677314336761 127.88899905182183 C 67.140491316829 127.92598933715703 66.51274047234193 127.95374057679541 65.88468308786965 127.97224374412937 C 65.25662570339736 127.99074691146333 64.62832988580168 128 64 128 C 63.37167011419832 128 62.74337429660264 127.99074691146333 62.11531691213035 127.97224374412937 C 61.487259527658075 127.95374057679541 60.85950868317101 127.92598933715703 60.2322685663239 127.88899905182183 L 57.41790574236109 119.61183358947588 C 56.7075099684025 119.4328094108424 55.994881575000065 119.26276416181925 55.280191043667244 119.10173852219364 C 54.56550051233337 118.9407128825678 53.84880484149889 118.7887196945533 53.13027548568266 118.6457953193561 C 52.41174612986752 118.50287094415913 51.69144039365641 118.36902678037032 50.96953059520772 118.24429484742069 C 50.24762079675901 118.11956291447106 49.5241645102545 118.00395316005626 48.799334807555844 117.89749324140425 L 43.03166850805162 124.4675869738802 C 42.438018632770344 124.26172714057103 41.84743253639487 124.04713609503634 41.26010231805337 123.82388363701072 C 40.67277209971127 123.60063117898488 40.08876144979217 123.36874151807875 39.50826032863425 123.12829008072235 C 38.927759207476925 122.8878386433662 38.35083056491902 122.6388515042365 37.77766205774749 122.38140965103793 C 37.20449355057596 122.12396779783936 36.6351473334749 121.85809914769726 36.06980859690611 121.58389017934218 L 36.63721047617052 112.85977639607664 C 36.04939994778347 112.42252292849639 35.45609066038605 111.99271052373504 34.85742455087876 111.57044200546613 C 34.25875844137059 111.1481734871966 33.65478325493267 110.73348253243273 33.04564348005462 110.32646834735225 C 32.43650370517659 109.91945416227176 31.82224792234325 109.52014920731689 31.20302307946293 109.12864900788523 C 30.58379823658258 108.73714880845355 29.95965371845066 108.35348458770657 29.330738838649296 107.97774812932172 L 21.487843973677975 111.8405329192062 C 21.018162152024594 111.42316326074992 20.554652183257573 110.99889947145216 20.097464832627665 110.5678795510128 C 19.640277481997757 110.13685963057344 19.189462327133498 109.69913031901159 18.745166004060962 109.25483399593905 C 18.300869680988427 108.81053767286652 17.86314036942658 108.35972251800226 17.432120448987213 107.90253516737235 C 17.001100528547404 107.44534781674197 16.576836739250524 106.9818378479759 16.15946708079381 106.51215602632203 L 20.022251870678282 98.6692611613507 C 19.646515412294534 98.0403462815512 19.26285119154528 97.41620176341553 18.871350992114785 96.79697692053705 C 18.479850792683713 96.17775207765764 18.080545837727634 95.56349629482247 17.673531652647767 94.95435651994535 C 17.26651746756729 94.34521674506732 16.851826512803406 93.74124155862938 16.42955799453388 93.14257544912121 C 16.00728947626498 92.54390933961392 15.577477071503615 91.95060005221652 15.140223603923367 91.36278952382948 L 6.416109820657844 91.93019140309393 C 6.1419008523027685 91.36485266652514 5.876032202160658 90.79550644942405 5.618590348962087 90.22233794225252 C 5.361148495763516 89.649169435081 5.112161356633813 89.0722407925231 4.871709919277663 88.49173967136576 C 4.6312584819212645 87.91123855020784 4.399368821015152 87.32722790028878 4.176116362989305 86.73989768194667 C 3.952863904963685 86.15256746360518 3.738272859429003 85.56198136722969 3.532413026119819 84.96833149194842 L 10.102506758595759 79.20066519244419 C 9.996046839943737 78.47583548974555 9.880437085528918 77.75237920324096 9.755705152579282 77.03046940479227 C 9.63097321962946 76.3085596063425 9.497129055841064 75.58825387013357 9.354204680643875 74.86972451431734 C 9.211280305446685 74.15119515850111 9.059287117432184 73.43449948766663 8.898261477806344 72.71980895633276 C 8.737235838180737 72.00511842499995 8.567190589157583 71.29249003159747 8.388166410524136 70.58209425763894 L 0.11100094817818018 67.7677314336761 C 0.07401066284297286 67.140491316829 0.04625942320459586 66.51274047234193 0.027756255870635016 65.88468308786965 C 0.00925308853667417 65.25662570339736 0 64.62832988580169 0 64 C 0 63.37167011419832 0.00925308853667417 62.74337429660266 0.027756255870635016 62.115316912130375 C 0.04625942320459586 61.48725952765809 0.07401066284297286 60.85950868317102 0.11100094817818018 60.23226856632391 L 8.388166410524128 57.4179057423611 C 8.567190589157597 56.707509968402505 8.737235838180766 55.994881575000065 8.898261477806372 55.280191043667244 C 9.059287117431971 54.565500512334424 9.211280305446913 53.84880484149791 9.354204680643889 53.13027548568273 C 9.497129055840858 52.41174612986761 9.63097321962968 51.691440393656386 9.75570515257931 50.96953059520772 C 9.880437085528946 50.24762079675901 9.996046839943737 49.524164510254494 10.102506758595752 48.79933480755585 L 3.532413026119812 43.031668508051595 C 3.738272859429209 42.43801863276971 3.9528639049634506 41.84743253639545 4.176116362989298 41.26010231805335 C 4.399368821015145 40.672772099711246 4.631258481921257 40.08876144979216 4.871709919277656 39.508260328634236 C 5.112161356633813 38.9277592074769 5.361148495763501 38.35083056491903 5.618590348962073 37.77766205774749 C 5.876032202160907 37.20449355057538 6.141900852302477 36.63514733347547 6.416109820657837 36.069808596906086 L 15.140223603923367 36.63721047617051 C 15.57747707150427 36.04939994778257 16.007289476264347 35.456090660386934 16.42955799453388 34.85742455087875 C 16.85182651280339 34.25875844137059 17.266517467567347 33.65478325493255 17.67353165264781 33.04564348005454 C 18.08054583772769 32.436503705177394 18.4798507926837 31.822247922342342 18.871350992114785 31.203023079462923 C 19.26285119154587 30.58379823658351 19.646515412294 29.959653718449708 20.022251870678296 29.33073883864928 L 16.159467080793796 21.487843973677982 C 16.576836739250083 21.0181621520246 17.001100528547838 20.55465218325758 17.4321204489872 20.097464832627672 C 17.863140369426567 19.640277481997764 18.300869680988413 19.189462327133505 18.74516600406095 18.74516600406097 C 19.189462327133484 18.300869680988434 19.640277481997742 17.86314036942659 20.09746483262765 17.43212044898722 C 20.55465218325756 17.001100528547852 21.018162152024573 16.576836739250105 21.48784397367796 16.159467080793817 L 29.33073883864929 20.02225187067829 C 29.959653718449736 19.646515412294 30.58379823658364 19.262851191545785 31.20302307946303 18.871350992114714 C 31.822247922342406 18.479850792683656 32.436503705177685 18.08054583772752 33.04564348005479 17.673531652647668 C 33.65478325493193 17.266517467567787 34.258758441371555 16.85182651280271 34.85742455087885 16.42955799453381 C 35.45609066038614 16.0072894762649 36.049399947783535 15.577477071503544 36.637210476170516 15.140223603923367 L 36.06980859690607 6.416109820657844 C 36.63514733347486 6.141900852302761 37.20449355057593 5.876032202160658 37.77766205774746 5.618590348962087 C 38.350830564918994 5.361148495763516 38.92775920747688 5.11216135663382 39.508260328634215 4.871709919277663 C 40.08876144979155 4.631258481921506 40.67277209971182 4.399368821014924 41.26010231805333 4.176116362989305 C 41.84743253639482 3.952863904963685 42.438018632770294 3.738272859429003 43.031668508051574 3.532413026119819 L 48.79933480755581 10.102506758595759 C 49.52416451025447 9.996046839943737 50.24762079675894 9.880437085528968 50.969530595207665 9.755705152579324 C 51.69144039365638 9.630973219629688 52.41174612986735 9.497129055840922 53.130275485682525 9.354204680643946 C 53.84880484149873 9.211280305446763 54.56550051233334 9.05928711743222 55.28019104366717 8.898261477806386 C 55.994881574999994 8.73723583818078 56.707509968402476 8.567190589157612 57.41790574236106 8.388166410524128 Z" fill-rule="evenodd" fill="#ffffff" stroke="#000000" stroke-width="2" stroke-linecap="butt" stroke-linejoin="round"/><g><path d="M 2474.0000000000005 5157 A 12 12 0 0 1 2498.0000000000005 5157 A 12 12 0 0 1 2474.0000000000005 5157 Z" fill="none" stroke="#000000" stroke-width="4" stroke-linecap="butt" stroke-linejoin="round"/></g></g><clipPath id="clip-n48o-5qPOY6C0-nvNBZ5GC5lWbf"><path d="M 2474.0000000000005 5157 A 12 12 0 0 1 2498.0000000000005 5157 A 12 12 0 0 1 2474.0000000000005 5157 Z M 2321.0000000000005 5322 L 2651.0000000000005 5322 L 2651.0000000000005 4992 L 2321.0000000000005 4992 Z" clip-rule="evenodd"/></clipPath><clipPath id="clip-n48o-5qPOY6C0-outside"><path d="M 2482.2322685663244 5093.111000948178 C 2482.8595086831715 5093.074010662843 2483.4872595276584 5093.046259423205 2484.1153169121308 5093.02775625587 C 2484.743374296603 5093.009253088537 2485.371670114199 5093 2486.0000000000005 5093 C 2486.628329885802 5093 2487.2566257033977 5093.009253088537 2487.88468308787 5093.02775625587 C 2488.5127404723426 5093.046259423205 2489.1404913168294 5093.074010662843 2489.7677314336765 5093.111000948178 L 2492.5820942576393 5101.388166410524 C 2493.292490031598 5101.567190589158 2494.0051184250005 5101.737235838181 2494.719808956333 5101.898261477806 C 2495.434499487667 5102.059287117432 2496.1511951585017 5102.211280305447 2496.869724514318 5102.354204680644 C 2497.588253870133 5102.497129055841 2498.3085596063443 5102.63097321963 2499.0304694047927 5102.755705152579 C 2499.7523792032416 5102.880437085529 2500.475835489746 5102.996046839944 2501.200665192445 5103.102506758596 L 2506.968331491949 5096.53241302612 C 2507.56198136723 5096.738272859429 2508.1525674636055 5096.952863904964 2508.7398976819472 5097.176116362989 C 2509.327227900289 5097.399368821015 2509.9112385502085 5097.631258481922 2510.4917396713663 5097.871709919277 C 2511.0722407925236 5098.112161356634 2511.6491694350816 5098.361148495764 2512.222337942253 5098.618590348962 C 2512.7955064494245 5098.876032202161 2513.3648526665256 5099.141900852303 2513.9301914030943 5099.416109820658 L 2513.36278952383 5108.140223603923 C 2513.950600052217 5108.577477071503 2514.5439093396144 5109.007289476265 2515.1425754491215 5109.429557994534 C 2515.74124155863 5109.851826512803 2516.345216745068 5110.266517467568 2516.954356519946 5110.673531652647 C 2517.563496294823 5111.080545837728 2518.177752077658 5111.4798507926835 2518.7969769205374 5111.8713509921145 C 2519.4162017634167 5112.262851191545 2520.0403462815507 5112.646515412294 2520.669261161351 5113.022251870679 L 2528.5121560263224 5109.159467080794 C 2528.981837847976 5109.57683673925 2529.445347816743 5110.001100528548 2529.9025351673727 5110.432120448987 C 2530.359722518003 5110.863140369426 2530.8105376728668 5111.300869680988 2531.2548339959394 5111.745166004061 C 2531.699130319012 5112.189462327134 2532.136859630574 5112.640277481998 2532.5678795510134 5113.097464832627 C 2532.9988994714527 5113.5546521832575 2533.4231632607502 5114.018162152024 2533.8405329192065 5114.487843973678 L 2529.977748129322 5122.330738838649 C 2530.3534845877066 5122.95965371845 2530.7371488084545 5123.583798236584 2531.1286490078855 5124.203023079463 C 2531.5201492073174 5124.822247922343 2531.9194541622724 5125.436503705177 2532.3264683473526 5126.045643480054 C 2532.7334825324333 5126.654783254933 2533.148173487197 5127.25875844137 2533.5704420054667 5127.857424550879 C 2533.992710523736 5128.456090660387 2534.422522928496 5129.049399947782 2534.859776396077 5129.63721047617 L 2543.5838901793427 5129.069808596906 C 2543.858099147698 5129.635147333475 2544.1239677978397 5130.2044935505755 2544.381409651038 5130.777662057748 C 2544.6388515042368 5131.350830564919 2544.8878386433666 5131.927759207477 2545.1282900807228 5132.508260328635 C 2545.368741518079 5133.0887614497915 2545.6006311789856 5133.672772099711 2545.823883637011 5134.260102318053 C 2546.047136095037 5134.847432536395 2546.2617271405716 5135.438018632771 2546.4675869738808 5136.031668508052 L 2539.897493241405 5141.799334807556 C 2540.003953160057 5142.524164510254 2540.1195629144713 5143.247620796759 2540.2442948474213 5143.969530595208 C 2540.369026780371 5144.691440393657 2540.5028709441594 5145.4117461298665 2540.6457953193567 5146.130275485682 C 2540.7887196945535 5146.848804841498 2540.9407128825687 5147.565500512334 2541.101738522194 5148.280191043667 C 2541.26276416182 5148.994881575001 2541.4328094108428 5149.707509968402 2541.611833589476 5150.417905742361 L 2549.8889990518223 5153.232268566324 C 2549.9259893371573 5153.859508683171 2549.953740576796 5154.487259527658 2549.9722437441296 5155.115316912131 C 2549.9907469114637 5155.743374296602 2550.0000000000005 5156.371670114198 2550.0000000000005 5157 C 2550.0000000000005 5157.628329885802 2549.9907469114637 5158.256625703398 2549.9722437441296 5158.884683087869 C 2549.953740576796 5159.512740472342 2549.9259893371573 5160.140491316829 2549.8889990518223 5160.767731433676 L 2541.611833589476 5163.582094257639 C 2541.4328094108428 5164.2924900315975 2541.2627641618196 5165.005118425 2541.101738522194 5165.719808956333 C 2540.9407128825683 5166.4344994876665 2540.788719694554 5167.151195158501 2540.6457953193567 5167.869724514318 C 2540.5028709441594 5168.588253870133 2540.369026780371 5169.308559606344 2540.2442948474213 5170.030469404793 C 2540.1195629144713 5170.752379203241 2540.003953160057 5171.475835489746 2539.897493241405 5172.200665192444 L 2546.4675869738808 5177.968331491948 C 2546.2617271405716 5178.561981367229 2546.047136095037 5179.152567463605 2545.823883637011 5179.739897681947 C 2545.6006311789856 5180.327227900289 2545.368741518079 5180.9112385502085 2545.1282900807228 5181.491739671365 C 2544.8878386433666 5182.072240792523 2544.6388515042368 5182.649169435081 2544.381409651038 5183.222337942252 C 2544.1239677978397 5183.795506449424 2543.858099147698 5184.364852666525 2543.5838901793427 5184.930191403094 L 2534.859776396077 5184.36278952383 C 2534.422522928496 5184.950600052218 2533.992710523736 5185.5439093396135 2533.5704420054667 5186.142575449121 C 2533.1481734871977 5186.741241558629 2532.7334825324324 5187.345216745069 2532.3264683473526 5187.954356519946 C 2531.9194541622724 5188.563496294823 2531.5201492073174 5189.177752077657 2531.1286490078855 5189.796976920537 C 2530.737148808454 5190.416201763417 2530.353484587707 5191.040346281549 2529.977748129322 5191.669261161351 L 2533.8405329192065 5199.512156026322 C 2533.4231632607502 5199.981837847976 2532.9988994714527 5200.4453478167425 2532.5678795510134 5200.902535167373 C 2532.136859630574 5201.359722518002 2531.699130319012 5201.810537672866 2531.2548339959394 5202.254833995939 C 2530.8105376728668 5202.699130319012 2530.359722518003 5203.136859630574 2529.9025351673727 5203.567879551013 C 2529.445347816743 5203.998899471452 2528.981837847976 5204.42316326075 2528.5121560263224 5204.840532919206 L 2520.669261161351 5200.977748129321 C 2520.04034628155 5201.353484587707 2519.4162017634176 5201.737148808454 2518.7969769205374 5202.1286490078855 C 2518.1777520776573 5202.5201492073165 2517.563496294824 5202.919454162272 2516.9543565199456 5203.326468347353 C 2516.3452167450687 5203.733482532432 2515.741241558629 5204.148173487197 2515.1425754491215 5204.570442005466 C 2514.5439093396144 5204.992710523735 2513.950600052217 5205.422522928497 2513.36278952383 5205.859776396077 L 2513.9301914030943 5214.583890179342 C 2513.3648526665256 5214.858099147697 2512.7955064494245 5215.123967797839 2512.222337942253 5215.381409651038 C 2511.6491694350816 5215.638851504236 2511.0722407925236 5215.887838643366 2510.4917396713663 5216.128290080723 C 2509.911238550209 5216.368741518078 2509.3272279002886 5216.600631178985 2508.7398976819472 5216.823883637011 C 2508.1525674636055 5217.047136095036 2507.56198136723 5217.261727140571 2506.968331491949 5217.46758697388 L 2501.200665192445 5210.897493241404 C 2500.475835489746 5211.003953160056 2499.7523792032416 5211.119562914471 2499.0304694047927 5211.244294847421 C 2498.308559606344 5211.36902678037 2497.588253870133 5211.502870944159 2496.8697245143176 5211.645795319356 C 2496.1511951585026 5211.788719694553 2495.434499487666 5211.940712882568 2494.719808956333 5212.101738522194 C 2494.0051184250005 5212.262764161819 2493.292490031598 5212.432809410842 2492.5820942576393 5212.611833589476 L 2489.7677314336765 5220.888999051822 C 2489.1404913168294 5220.925989337157 2488.5127404723426 5220.953740576795 2487.88468308787 5220.97224374413 C 2487.2566257033977 5220.990746911463 2486.628329885802 5221 2486.0000000000005 5221 C 2485.371670114199 5221 2484.743374296603 5220.990746911463 2484.1153169121308 5220.97224374413 C 2483.4872595276584 5220.953740576795 2482.8595086831715 5220.925989337157 2482.2322685663244 5220.888999051822 L 2479.4179057423617 5212.611833589476 C 2478.707509968403 5212.432809410842 2477.9948815750004 5212.262764161819 2477.280191043668 5212.101738522194 C 2476.565500512334 5211.940712882568 2475.8488048414993 5211.788719694553 2475.1302754856833 5211.645795319356 C 2474.411746129868 5211.502870944159 2473.6914403936566 5211.36902678037 2472.969530595208 5211.244294847421 C 2472.2476207967593 5211.119562914471 2471.524164510255 5211.003953160056 2470.799334807556 5210.897493241404 L 2465.031668508052 5217.46758697388 C 2464.4380186327708 5217.261727140571 2463.8474325363954 5217.047136095036 2463.2601023180537 5216.823883637011 C 2462.672772099712 5216.600631178985 2462.0887614497924 5216.368741518078 2461.5082603286346 5216.128290080723 C 2460.9277592074773 5215.887838643366 2460.3508305649193 5215.638851504236 2459.777662057748 5215.381409651038 C 2459.2044935505764 5215.123967797839 2458.6351473334753 5214.858099147697 2458.0698085969066 5214.583890179342 L 2458.637210476171 5205.859776396077 C 2458.049399947784 5205.422522928497 2457.4560906603865 5204.992710523735 2456.8574245508794 5204.570442005466 C 2456.258758441371 5204.148173487197 2455.654783254933 5203.733482532432 2455.045643480055 5203.326468347353 C 2454.436503705177 5202.919454162272 2453.8222479223436 5202.5201492073165 2453.2030230794635 5202.1286490078855 C 2452.583798236583 5201.737148808454 2451.959653718451 5201.353484587707 2451.3307388386497 5200.977748129321 L 2443.4878439736785 5204.840532919206 C 2443.018162152025 5204.42316326075 2442.554652183258 5203.998899471452 2442.0974648326282 5203.567879551013 C 2441.640277481998 5203.136859630574 2441.189462327134 5202.699130319012 2440.7451660040615 5202.254833995939 C 2440.300869680989 5201.810537672866 2439.863140369427 5201.359722518002 2439.4321204489875 5200.902535167373 C 2439.001100528548 5200.445347816742 2438.576836739251 5199.981837847976 2438.1594670807945 5199.512156026322 L 2442.0222518706787 5191.669261161351 C 2441.646515412295 5191.040346281551 2441.262851191546 5190.416201763415 2440.8713509921154 5189.796976920537 C 2440.4798507926844 5189.177752077658 2440.080545837728 5188.5634962948225 2439.6735316526483 5187.954356519946 C 2439.2665174675676 5187.345216745067 2438.8518265128037 5186.74124155863 2438.429557994534 5186.142575449121 C 2438.007289476265 5185.5439093396135 2437.5774770715043 5184.950600052217 2437.140223603924 5184.36278952383 L 2428.416109820658 5184.930191403094 C 2428.141900852303 5184.364852666525 2427.8760322021612 5183.7955064494245 2427.6185903489627 5183.222337942252 C 2427.361148495764 5182.649169435081 2427.1121613566343 5182.072240792523 2426.871709919278 5181.491739671365 C 2426.6312584819216 5180.911238550208 2426.3993688210157 5180.327227900289 2426.17611636299 5179.739897681947 C 2425.952863904964 5179.152567463605 2425.7382728594293 5178.561981367229 2425.53241302612 5177.968331491948 L 2432.102506758596 5172.200665192444 C 2431.996046839944 5171.475835489746 2431.8804370855296 5170.752379203241 2431.7557051525796 5170.030469404793 C 2431.63097321963 5169.308559606343 2431.4971290558415 5168.5882538701335 2431.354204680644 5167.869724514318 C 2431.211280305447 5167.151195158501 2431.0592871174326 5166.4344994876665 2430.898261477807 5165.719808956333 C 2430.7372358381813 5165.005118425 2430.567190589158 5164.2924900315975 2430.3881664105247 5163.582094257639 L 2422.1110009481786 5160.767731433676 C 2422.0740106628436 5160.140491316829 2422.046259423205 5159.512740472342 2422.0277562558713 5158.884683087869 C 2422.009253088537 5158.256625703398 2422.0000000000005 5157.628329885802 2422.0000000000005 5157 C 2422.0000000000005 5156.371670114198 2422.009253088537 5155.743374296602 2422.0277562558713 5155.115316912131 C 2422.046259423205 5154.487259527658 2422.0740106628436 5153.859508683171 2422.1110009481786 5153.232268566324 L 2430.3881664105247 5150.417905742361 C 2430.567190589158 5149.7075099684025 2430.7372358381813 5148.994881575 2430.898261477807 5148.280191043667 C 2431.0592871174326 5147.565500512334 2431.2112803054474 5146.848804841498 2431.354204680644 5146.130275485682 C 2431.4971290558415 5145.411746129867 2431.63097321963 5144.691440393656 2431.7557051525796 5143.969530595207 C 2431.8804370855296 5143.247620796759 2431.996046839944 5142.524164510254 2432.102506758596 5141.799334807556 L 2425.53241302612 5136.031668508052 C 2425.73827285943 5135.43801863277 2425.952863904964 5134.847432536396 2426.17611636299 5134.260102318053 C 2426.3993688210157 5133.672772099711 2426.6312584819216 5133.088761449792 2426.871709919278 5132.508260328635 C 2427.1121613566343 5131.927759207477 2427.361148495764 5131.350830564919 2427.6185903489627 5130.777662057748 C 2427.8760322021612 5130.2044935505755 2428.141900852303 5129.635147333475 2428.416109820658 5129.069808596906 L 2437.140223603924 5129.63721047617 C 2437.5774770715047 5129.049399947782 2438.0072894762648 5128.4560906603865 2438.429557994534 5127.857424550879 C 2438.8518265128037 5127.25875844137 2439.2665174675676 5126.654783254932 2439.6735316526483 5126.045643480054 C 2440.080545837728 5125.4365037051775 2440.4798507926844 5124.822247922342 2440.8713509921154 5124.203023079463 C 2441.2628511915464 5123.583798236584 2441.6465154122943 5122.95965371845 2442.0222518706787 5122.330738838649 L 2438.1594670807945 5114.487843973678 C 2438.5768367392507 5114.018162152024 2439.0011005285482 5113.5546521832575 2439.4321204489875 5113.097464832627 C 2439.863140369427 5112.640277481998 2440.300869680989 5112.189462327134 2440.7451660040615 5111.745166004061 C 2441.189462327134 5111.300869680988 2441.640277481998 5110.863140369426 2442.0974648326282 5110.432120448987 C 2442.554652183258 5110.001100528548 2443.018162152025 5109.57683673925 2443.4878439736785 5109.159467080794 L 2451.3307388386497 5113.022251870679 C 2451.95965371845 5112.646515412294 2452.5837982365842 5112.262851191545 2453.2030230794635 5111.8713509921145 C 2453.8222479223427 5111.4798507926835 2454.436503705178 5111.080545837727 2455.0456434800553 5110.673531652647 C 2455.654783254932 5110.266517467568 2456.258758441372 5109.851826512802 2456.8574245508794 5109.429557994534 C 2457.4560906603865 5109.007289476265 2458.049399947784 5108.577477071503 2458.637210476171 5108.140223603923 L 2458.0698085969066 5099.416109820658 C 2458.6351473334753 5099.141900852303 2459.2044935505764 5098.876032202161 2459.777662057748 5098.618590348962 C 2460.3508305649193 5098.361148495764 2460.9277592074773 5098.112161356634 2461.5082603286346 5097.871709919277 C 2462.088761449792 5097.631258481922 2462.6727720997123 5097.399368821015 2463.2601023180537 5097.176116362989 C 2463.8474325363954 5096.952863904964 2464.4380186327708 5096.738272859429 2465.031668508052 5096.53241302612 L 2470.799334807556 5103.102506758596 C 2471.524164510255 5102.996046839944 2472.2476207967593 5102.880437085529 2472.969530595208 5102.755705152579 C 2473.6914403936566 5102.63097321963 2474.411746129868 5102.497129055841 2475.130275485683 5102.354204680644 C 2475.8488048414993 5102.211280305447 2476.565500512334 5102.059287117432 2477.2801910436674 5101.898261477806 C 2477.9948815750004 5101.737235838181 2478.707509968403 5101.567190589158 2479.4179057423617 5101.388166410524 Z"/></clipPath></svg>